<?xml version="1.0" encoding="UTF-8" standalone="no"?>
<!DOCTYPE svg PUBLIC "-//W3C//DTD SVG 1.1//EN"
 "http://www.w3.org/Graphics/SVG/1.1/DTD/svg11.dtd">
<!-- Generated by graphviz version 14.1.5 (20260411.2331)
 -->
<!-- Title: SwarmProviderArch Pages: 1 -->
<svg width="2542pt" height="708pt"
 viewBox="0.00 0.00 2542.00 708.00" xmlns="http://www.w3.org/2000/svg" xmlns:xlink="http://www.w3.org/1999/xlink">
<g id="graph0" class="graph" transform="scale(1 1) rotate(0) translate(4 703.67)">
<title>SwarmProviderArch</title>
<polygon fill="#f8fafc" stroke="none" points="-4,4 -4,-703.67 2538,-703.67 2538,4 -4,4"/>
<text xml:space="preserve" text-anchor="start" x="8" y="-679.57" font-family="Helvetica,sans-Serif" font-weight="bold" font-size="18.00">Acteon · Ambient Swarm Provider</text>
<text xml:space="preserve" text-anchor="start" x="8" y="-669.17" font-family="Helvetica,sans-Serif" font-size="10.00" fill="#64748b">Long&#45;running agent&#45;swarm goals dispatched as Actions. Provider returns 202; background task runs the swarm; HITL controls throttle the stream.</text>
<text xml:space="preserve" text-anchor="start" x="322.62" y="-658.22" font-family="Helvetica,sans-Serif" font-size="11.00"> </text>
<g id="clust1" class="cluster">
<title>cluster_ingress</title>
<path fill="#eff6ff" stroke="#93c5fd" d="M20,-390.53C20,-390.53 174,-390.53 174,-390.53 180,-390.53 186,-396.53 186,-402.53 186,-402.53 186,-487.81 186,-487.81 186,-493.81 180,-499.81 174,-499.81 174,-499.81 20,-499.81 20,-499.81 14,-499.81 8,-493.81 8,-487.81 8,-487.81 8,-402.53 8,-402.53 8,-396.53 14,-390.53 20,-390.53"/>
<text xml:space="preserve" text-anchor="start" x="16" y="-486.36" font-family="Helvetica,sans-Serif" font-size="11.00"> </text>
<text xml:space="preserve" text-anchor="start" x="19" y="-486.36" font-family="Helvetica,sans-Serif" font-weight="bold" font-size="10.00" fill="#1d4ed8">① INGRESS</text>
<text xml:space="preserve" text-anchor="start" x="77.5" y="-486.36" font-family="Helvetica,sans-Serif" font-size="11.00"> </text>
</g>
<g id="clust2" class="cluster">
<title>cluster_gateway</title>
<path fill="#fff7ed" stroke="#fdba74" d="M272,-369.29C272,-369.29 429,-369.29 429,-369.29 435,-369.29 441,-375.29 441,-381.29 441,-381.29 441,-529.04 441,-529.04 441,-535.04 435,-541.04 429,-541.04 429,-541.04 272,-541.04 272,-541.04 266,-541.04 260,-535.04 260,-529.04 260,-529.04 260,-381.29 260,-381.29 260,-375.29 266,-369.29 272,-369.29"/>
<text xml:space="preserve" text-anchor="start" x="293.5" y="-527.59" font-family="Helvetica,sans-Serif" font-size="11.00"> </text>
<text xml:space="preserve" text-anchor="start" x="296.5" y="-527.59" font-family="Helvetica,sans-Serif" font-weight="bold" font-size="10.00" fill="#c2410c">② GATEWAY PIPELINE</text>
<text xml:space="preserve" text-anchor="start" x="268" y="-516.59" font-family="Helvetica,sans-Serif" font-size="9.00" fill="#a16207">existing Acteon machinery (unchanged)</text>
<text xml:space="preserve" text-anchor="start" x="430" y="-516.59" font-family="Helvetica,sans-Serif" font-size="11.00"> </text>
</g>
<g id="clust3" class="cluster">
<title>cluster_provider</title>
<path fill="#f0fdf4" stroke="#86efac" d="M517,-382.03C517,-382.03 663,-382.03 663,-382.03 669,-382.03 675,-388.03 675,-394.03 675,-394.03 675,-496.31 675,-496.31 675,-502.31 669,-508.31 663,-508.31 663,-508.31 517,-508.31 517,-508.31 511,-508.31 505,-502.31 505,-496.31 505,-496.31 505,-394.03 505,-394.03 505,-388.03 511,-382.03 517,-382.03"/>
<text xml:space="preserve" text-anchor="start" x="513" y="-494.86" font-family="Helvetica,sans-Serif" font-size="11.00"> </text>
<text xml:space="preserve" text-anchor="start" x="516" y="-494.86" font-family="Helvetica,sans-Serif" font-weight="bold" font-size="10.00" fill="#15803d">③ PROVIDER</text>
<text xml:space="preserve" text-anchor="start" x="582" y="-494.86" font-family="Helvetica,sans-Serif" font-size="11.00"> </text>
</g>
<g id="clust4" class="cluster">
<title>cluster_registry</title>
<path fill="#faf5ff" stroke="#d8b4fe" d="M768,-363.03C768,-363.03 978,-363.03 978,-363.03 984,-363.03 990,-369.03 990,-375.03 990,-375.03 990,-515.31 990,-515.31 990,-521.31 984,-527.31 978,-527.31 978,-527.31 768,-527.31 768,-527.31 762,-527.31 756,-521.31 756,-515.31 756,-515.31 756,-375.03 756,-375.03 756,-369.03 762,-363.03 768,-363.03"/>
<text xml:space="preserve" text-anchor="start" x="764" y="-513.86" font-family="Helvetica,sans-Serif" font-size="11.00"> </text>
<text xml:space="preserve" text-anchor="start" x="767" y="-513.86" font-family="Helvetica,sans-Serif" font-weight="bold" font-size="10.00" fill="#7e22ce">④ REGISTRY</text>
<text xml:space="preserve" text-anchor="start" x="830.75" y="-513.86" font-family="Helvetica,sans-Serif" font-size="11.00"> </text>
</g>
<g id="clust5" class="cluster">
<title>cluster_bg</title>
<path fill="#fefce8" stroke="#fde047" d="M794,-8C794,-8 1727,-8 1727,-8 1733,-8 1739,-14 1739,-20 1739,-20 1739,-310.53 1739,-310.53 1739,-316.53 1733,-322.53 1727,-322.53 1727,-322.53 794,-322.53 794,-322.53 788,-322.53 782,-316.53 782,-310.53 782,-310.53 782,-20 782,-20 782,-14 788,-8 794,-8"/>
<text xml:space="preserve" text-anchor="start" x="790" y="-309.08" font-family="Helvetica,sans-Serif" font-size="11.00"> </text>
<text xml:space="preserve" text-anchor="start" x="793" y="-309.08" font-family="Helvetica,sans-Serif" font-weight="bold" font-size="10.00" fill="#a16207">⑤ BACKGROUND EXECUTION</text>
<text xml:space="preserve" text-anchor="start" x="943" y="-309.08" font-family="Helvetica,sans-Serif" font-size="11.00"> </text>
</g>
<g id="clust6" class="cluster">
<title>cluster_obs</title>
<path fill="#ecfeff" stroke="#67e8f9" d="M1080,-374.03C1080,-374.03 1754,-374.03 1754,-374.03 1760,-374.03 1766,-380.03 1766,-386.03 1766,-386.03 1766,-504.31 1766,-504.31 1766,-510.31 1760,-516.31 1754,-516.31 1754,-516.31 1080,-516.31 1080,-516.31 1074,-516.31 1068,-510.31 1068,-504.31 1068,-504.31 1068,-386.03 1068,-386.03 1068,-380.03 1074,-374.03 1080,-374.03"/>
<text xml:space="preserve" text-anchor="start" x="1076" y="-502.86" font-family="Helvetica,sans-Serif" font-size="11.00"> </text>
<text xml:space="preserve" text-anchor="start" x="1079" y="-502.86" font-family="Helvetica,sans-Serif" font-weight="bold" font-size="10.00" fill="#0e7490">⑥ OBSERVATION</text>
<text xml:space="preserve" text-anchor="start" x="1164.5" y="-502.86" font-family="Helvetica,sans-Serif" font-size="11.00"> </text>
</g>
<g id="clust7" class="cluster">
<title>cluster_hitl</title>
<path fill="#fef2f2" stroke="#fca5a5" d="M1816,-388.53C1816,-388.53 2514,-388.53 2514,-388.53 2520,-388.53 2526,-394.53 2526,-400.53 2526,-400.53 2526,-509.81 2526,-509.81 2526,-515.81 2520,-521.81 2514,-521.81 2514,-521.81 1816,-521.81 1816,-521.81 1810,-521.81 1804,-515.81 1804,-509.81 1804,-509.81 1804,-400.53 1804,-400.53 1804,-394.53 1810,-388.53 1816,-388.53"/>
<text xml:space="preserve" text-anchor="start" x="1838.62" y="-508.36" font-family="Helvetica,sans-Serif" font-size="11.00"> </text>
<text xml:space="preserve" text-anchor="start" x="1841.62" y="-508.36" font-family="Helvetica,sans-Serif" font-weight="bold" font-size="10.00" fill="#b91c1c">⑦ HUMAN&#45;IN&#45;THE&#45;LOOP CONTROLS</text>
<text xml:space="preserve" text-anchor="start" x="1812" y="-497.36" font-family="Helvetica,sans-Serif" font-size="9.00" fill="#7f1d1d">all reuse existing Acteon surfaces — no new kill switches</text>
<text xml:space="preserve" text-anchor="start" x="2043" y="-497.36" font-family="Helvetica,sans-Serif" font-size="11.00"> </text>
</g>
<!-- client -->
<g id="node1" class="node">
<title>client</title>
<path fill="#dbeafe" stroke="#1d4ed8" stroke-width="1.2" d="M162.08,-447.81C162.08,-447.81 31.92,-447.81 31.92,-447.81 25.92,-447.81 19.92,-441.81 19.92,-435.81 19.92,-435.81 19.92,-414.53 19.92,-414.53 19.92,-408.53 25.92,-402.53 31.92,-402.53 31.92,-402.53 162.08,-402.53 162.08,-402.53 168.08,-402.53 174.08,-408.53 174.08,-414.53 174.08,-414.53 174.08,-435.81 174.08,-435.81 174.08,-441.81 168.08,-447.81 162.08,-447.81"/>
<text xml:space="preserve" text-anchor="start" x="67.75" y="-430.67" font-family="Helvetica,sans-Serif" font-weight="bold" font-size="10.00">Client / SDK</text>
<text xml:space="preserve" text-anchor="start" x="32.88" y="-421.62" font-family="Helvetica,sans-Serif" font-size="9.00" fill="#475569">Rust · Python · Node · Go · Java</text>
<text xml:space="preserve" text-anchor="start" x="41.88" y="-412.62" font-family="Helvetica,sans-Serif" font-size="9.00" fill="#475569">action_type = &quot;swarm.goal&quot;</text>
</g>
<!-- gateway -->
<g id="node2" class="node">
<title>gateway</title>
<polygon fill="#fed7aa" stroke="none" points="282.5,-439.79 282.5,-465.04 334.75,-465.04 334.75,-439.79 282.5,-439.79"/>
<polygon fill="none" stroke="#c2410c" points="282.5,-439.79 282.5,-465.04 334.75,-465.04 334.75,-439.79 282.5,-439.79"/>
<text xml:space="preserve" text-anchor="start" x="297" y="-449.54" font-family="Helvetica,sans-Serif" font-weight="bold" font-size="10.00">rules</text>
<polygon fill="#fed7aa" stroke="none" points="336.75,-439.79 336.75,-465.04 417.5,-465.04 417.5,-439.79 336.75,-439.79"/>
<polygon fill="none" stroke="#c2410c" points="336.75,-439.79 336.75,-465.04 417.5,-465.04 417.5,-439.79 336.75,-439.79"/>
<text xml:space="preserve" text-anchor="start" x="361.38" y="-449.54" font-family="Helvetica,sans-Serif" font-weight="bold" font-size="10.00">quotas</text>
<polygon fill="#fed7aa" stroke="none" points="282.5,-412.54 282.5,-437.79 334.75,-437.79 334.75,-412.54 282.5,-412.54"/>
<polygon fill="none" stroke="#c2410c" points="282.5,-412.54 282.5,-437.79 334.75,-437.79 334.75,-412.54 282.5,-412.54"/>
<text xml:space="preserve" text-anchor="start" x="289.5" y="-422.29" font-family="Helvetica,sans-Serif" font-weight="bold" font-size="10.00">silences</text>
<polygon fill="#fed7aa" stroke="none" points="336.75,-412.54 336.75,-437.79 417.5,-437.79 417.5,-412.54 336.75,-412.54"/>
<polygon fill="none" stroke="#c2410c" points="336.75,-412.54 336.75,-437.79 417.5,-437.79 417.5,-412.54 336.75,-412.54"/>
<text xml:space="preserve" text-anchor="start" x="343.75" y="-422.29" font-family="Helvetica,sans-Serif" font-weight="bold" font-size="10.00">circuit breaker</text>
<polygon fill="#fed7aa" stroke="none" points="282.5,-385.29 282.5,-410.54 417.5,-410.54 417.5,-385.29 282.5,-385.29"/>
<polygon fill="none" stroke="#c2410c" points="282.5,-385.29 282.5,-410.54 417.5,-410.54 417.5,-385.29 282.5,-385.29"/>
<text xml:space="preserve" text-anchor="start" x="300.12" y="-395.04" font-family="Helvetica,sans-Serif" font-weight="bold" font-size="10.00">executor</text>
<text xml:space="preserve" text-anchor="start" x="339.88" y="-395.04" font-family="Helvetica,sans-Serif" font-size="10.00"> (30s timeout)</text>
</g>
<!-- client&#45;&gt;gateway -->
<g id="edge4" class="edge">
<title>client&#45;&gt;gateway</title>
<path fill="none" stroke="#64748b" stroke-width="1.1" d="M174.63,-425.17C205.3,-425.17 240.5,-425.17 271.28,-425.17"/>
<polygon fill="#64748b" stroke="#64748b" stroke-width="1.1" points="271.01,-427.97 279.01,-425.17 271.01,-422.37 271.01,-427.97"/>
<text xml:space="preserve" text-anchor="middle" x="227.29" y="-429.37" font-family="Helvetica,sans-Serif" font-size="9.00" fill="#475569">POST /v1/dispatch</text>
</g>
<!-- provider -->
<g id="node3" class="node">
<title>provider</title>
<path fill="#bbf7d0" stroke="#15803d" stroke-width="1.2" d="M650.59,-456.31C650.59,-456.31 529.41,-456.31 529.41,-456.31 523.41,-456.31 517.41,-450.31 517.41,-444.31 517.41,-444.31 517.41,-406.03 517.41,-406.03 517.41,-400.03 523.41,-394.03 529.41,-394.03 529.41,-394.03 650.59,-394.03 650.59,-394.03 656.59,-394.03 662.59,-400.03 662.59,-406.03 662.59,-406.03 662.59,-444.31 662.59,-444.31 662.59,-450.31 656.59,-456.31 650.59,-456.31"/>
<text xml:space="preserve" text-anchor="start" x="554" y="-439.17" font-family="Helvetica,sans-Serif" font-weight="bold" font-size="10.00">SwarmProvider</text>
<text xml:space="preserve" text-anchor="start" x="530.38" y="-430.12" font-family="Helvetica,sans-Serif" font-size="9.00" fill="#475569">crate: acteon&#45;swarm&#45;provider</text>
<text xml:space="preserve" text-anchor="start" x="552.88" y="-421.12" font-family="Helvetica,sans-Serif" font-size="9.00">execute(action) →</text>
<text xml:space="preserve" text-anchor="start" x="540.12" y="-412.12" font-family="Helvetica,sans-Serif" font-size="9.00">202 { run_id, started_at }</text>
<text xml:space="preserve" text-anchor="start" x="548.75" y="-404.07" font-family="Helvetica,sans-Serif" font-style="italic" font-size="8.00" fill="#166534">fire&#45;and&#45;forget contract</text>
</g>
<!-- gateway&#45;&gt;provider -->
<g id="edge5" class="edge">
<title>gateway&#45;&gt;provider</title>
<path fill="none" stroke="#64748b" stroke-width="1.1" d="M419.42,-425.17C446.91,-425.17 478.73,-425.17 507.39,-425.17"/>
<polygon fill="#64748b" stroke="#64748b" stroke-width="1.1" points="507.31,-427.97 515.31,-425.17 507.31,-422.37 507.31,-427.97"/>
<text xml:space="preserve" text-anchor="middle" x="468.46" y="-439.12" font-family="Helvetica,sans-Serif" font-size="9.00" fill="#475569">dispatch to</text>
<text xml:space="preserve" text-anchor="middle" x="468.46" y="-429.37" font-family="Helvetica,sans-Serif" font-size="9.00" fill="#475569">provider=swarm</text>
</g>
<!-- provider&#45;&gt;client -->
<g id="edge7" class="edge">
<title>provider&#45;&gt;client</title>
<path fill="none" stroke="#15803d" stroke-width="1.1" stroke-dasharray="5,2" d="M562.34,-456.83C536.26,-484.08 494.48,-521.44 449,-537.32 366.34,-566.18 335.3,-564.29 252,-537.32 202.19,-521.19 154.95,-482.4 126,-454.97"/>
<polygon fill="#15803d" stroke="#15803d" stroke-width="1.1" points="127.95,-452.96 120.24,-449.42 124.06,-456.99 127.95,-452.96"/>
<text xml:space="preserve" text-anchor="middle" x="326" y="-560" font-family="Helvetica,sans-Serif" font-size="9.00" fill="#15803d">202 Accepted</text>
<text xml:space="preserve" text-anchor="middle" x="326" y="-550.25" font-family="Helvetica,sans-Serif" font-size="9.00" fill="#15803d">{run_id}</text>
</g>
<!-- registry -->
<g id="node4" class="node">
<title>registry</title>
<path fill="#ede9fe" stroke="#7e22ce" stroke-width="1.2" d="M965.84,-475.31C965.84,-475.31 780.16,-475.31 780.16,-475.31 774.16,-475.31 768.16,-469.31 768.16,-463.31 768.16,-463.31 768.16,-387.03 768.16,-387.03 768.16,-381.03 774.16,-375.03 780.16,-375.03 780.16,-375.03 965.84,-375.03 965.84,-375.03 971.84,-375.03 977.84,-381.03 977.84,-387.03 977.84,-387.03 977.84,-463.31 977.84,-463.31 977.84,-469.31 971.84,-475.31 965.84,-475.31"/>
<text xml:space="preserve" text-anchor="start" x="827.62" y="-458.17" font-family="Helvetica,sans-Serif" font-weight="bold" font-size="10.00">SwarmRunRegistry</text>
<text xml:space="preserve" text-anchor="start" x="781.12" y="-449.12" font-family="Helvetica,sans-Serif" font-size="9.00" fill="#475569">Arc&lt;Self&gt; shared by provider + HTTP API</text>
<text xml:space="preserve" text-anchor="start" x="781.12" y="-430.12" font-family="Menlo" font-size="9.00">runs: DashMap&lt;run_id, Handle&gt;</text>
<text xml:space="preserve" text-anchor="start" x="781.12" y="-421.12" font-family="Menlo" font-size="9.00">inflight_count: AtomicUsize &#160;← O(1)</text>
<text xml:space="preserve" text-anchor="start" x="781.12" y="-412.12" font-family="Menlo" font-size="9.00">idempotency_index</text>
<text xml:space="preserve" text-anchor="start" x="781.12" y="-403.12" font-family="Menlo" font-size="9.00">updates_tx: broadcast::Sender(256)</text>
<text xml:space="preserve" text-anchor="start" x="781.12" y="-394.12" font-family="Helvetica,sans-Serif" font-size="9.00" fill="#78350f">MAX_LIST_PAGE = 500 &#160;(DoS cap)</text>
<text xml:space="preserve" text-anchor="start" x="781.12" y="-385.12" font-family="Helvetica,sans-Serif" font-weight="bold" font-size="9.00" fill="#7f1d1d">terminal status is absorbing</text>
</g>
<!-- provider&#45;&gt;registry -->
<g id="edge6" class="edge">
<title>provider&#45;&gt;registry</title>
<path fill="none" stroke="#64748b" stroke-width="1.1" d="M662.88,-425.17C691.95,-425.17 726.11,-425.17 758.34,-425.17"/>
<polygon fill="#64748b" stroke="#64748b" stroke-width="1.1" points="758.16,-427.97 766.16,-425.17 758.16,-422.37 758.16,-427.97"/>
<text xml:space="preserve" text-anchor="middle" x="715.38" y="-429.37" font-family="Helvetica,sans-Serif" font-size="9.00" fill="#475569">registry.start(goal)</text>
</g>
<!-- spawn -->
<g id="node5" class="node">
<title>spawn</title>
<path fill="#fef9c3" stroke="#a16207" stroke-width="1.2" d="M938.09,-268.53C938.09,-268.53 807.91,-268.53 807.91,-268.53 801.91,-268.53 795.91,-262.53 795.91,-256.53 795.91,-256.53 795.91,-201.25 795.91,-201.25 795.91,-195.25 801.91,-189.25 807.91,-189.25 807.91,-189.25 938.09,-189.25 938.09,-189.25 944.09,-189.25 950.09,-195.25 950.09,-201.25 950.09,-201.25 950.09,-256.53 950.09,-256.53 950.09,-262.53 944.09,-268.53 938.09,-268.53"/>
<text xml:space="preserve" text-anchor="start" x="822" y="-251.39" font-family="Helvetica,sans-Serif" font-weight="bold" font-size="10.00">tokio::spawn (per run)</text>
<text xml:space="preserve" text-anchor="start" x="808.88" y="-242.34" font-family="Helvetica,sans-Serif" font-size="9.00">select! {</text>
<text xml:space="preserve" text-anchor="start" x="808.88" y="-233.34" font-family="Helvetica,sans-Serif" font-size="9.00"> &#160;executor.run(plan)</text>
<text xml:space="preserve" text-anchor="start" x="808.88" y="-224.34" font-family="Helvetica,sans-Serif" font-size="9.00"> &#160;cancel.cancelled()</text>
<text xml:space="preserve" text-anchor="start" x="808.88" y="-215.34" font-family="Helvetica,sans-Serif" font-size="9.00">}</text>
<text xml:space="preserve" text-anchor="start" x="823.5" y="-207.29" font-family="Helvetica,sans-Serif" font-size="8.00" fill="#475569">on terminal: inflight_count &#45;&#45;</text>
<text xml:space="preserve" text-anchor="start" x="808.88" y="-199.29" font-family="Helvetica,sans-Serif" font-size="8.00" fill="#475569">on every transition: updates_tx.send</text>
</g>
<!-- registry&#45;&gt;spawn -->
<g id="edge8" class="edge">
<title>registry&#45;&gt;spawn</title>
<path fill="none" stroke="#64748b" stroke-width="1.1" stroke-dasharray="5,2" d="M873,-374.64C873,-345.15 873,-307.88 873,-278.54"/>
<polygon fill="#64748b" stroke="#64748b" stroke-width="1.1" points="875.8,-278.58 873,-270.58 870.2,-278.58 875.8,-278.58"/>
<text xml:space="preserve" text-anchor="middle" x="898.5" y="-336.6" font-family="Helvetica,sans-Serif" font-size="9.00" fill="#475569">tokio::spawn</text>
</g>
<!-- sub -->
<g id="node12" class="node">
<title>sub</title>
<path fill="#cffafe" stroke="#0e7490" stroke-width="1.2" d="M1267.59,-447.81C1267.59,-447.81 1092.41,-447.81 1092.41,-447.81 1086.41,-447.81 1080.41,-441.81 1080.41,-435.81 1080.41,-435.81 1080.41,-414.53 1080.41,-414.53 1080.41,-408.53 1086.41,-402.53 1092.41,-402.53 1092.41,-402.53 1267.59,-402.53 1267.59,-402.53 1273.59,-402.53 1279.59,-408.53 1279.59,-414.53 1279.59,-414.53 1279.59,-435.81 1279.59,-435.81 1279.59,-441.81 1273.59,-447.81 1267.59,-447.81"/>
<text xml:space="preserve" text-anchor="start" x="1126.75" y="-430.67" font-family="Helvetica,sans-Serif" font-weight="bold" font-size="10.00">Broadcast Subscribers</text>
<text xml:space="preserve" text-anchor="start" x="1093.38" y="-421.62" font-family="Helvetica,sans-Serif" font-size="9.00">registry.subscribe() → broadcast::Receiver</text>
<text xml:space="preserve" text-anchor="start" x="1103.88" y="-412.62" font-family="Helvetica,sans-Serif" font-size="9.00">SSE · rule reactors · metrics exporters</text>
</g>
<!-- registry&#45;&gt;sub -->
<g id="edge16" class="edge">
<title>registry&#45;&gt;sub</title>
<path fill="none" stroke="#0e7490" stroke-width="1.1" stroke-dasharray="5,2" d="M978.22,-425.17C1007.9,-425.17 1040.26,-425.17 1070.21,-425.17"/>
<polygon fill="#0e7490" stroke="#0e7490" stroke-width="1.1" points="1070.17,-427.97 1078.17,-425.17 1070.17,-422.37 1070.17,-427.97"/>
<text xml:space="preserve" text-anchor="middle" x="1029.12" y="-429.37" font-family="Helvetica,sans-Serif" font-size="9.00" fill="#0e7490">broadcast fan&#45;out</text>
</g>
<!-- spawn&#45;&gt;registry -->
<g id="edge12" class="edge">
<title>spawn&#45;&gt;registry</title>
<path fill="none" stroke="#7e22ce" stroke-width="1.1" stroke-dasharray="5,2" d="M914.54,-269.01C938.68,-289.08 970.81,-311.55 1004,-322.53 1022.2,-328.55 1335.6,-316.82 1349,-330.53 1355.06,-336.73 1354.99,-343.77 1349,-350.03 1337.89,-361.65 1075.81,-360.15 1060,-363.03 1036.01,-367.41 1010.87,-374.1 987.07,-381.47"/>
<polygon fill="#7e22ce" stroke="#7e22ce" stroke-width="1.1" points="986.39,-378.74 979.61,-383.82 988.08,-384.09 986.39,-378.74"/>
<text xml:space="preserve" text-anchor="middle" x="1375.27" y="-336.6" font-family="Helvetica,sans-Serif" font-size="9.00" fill="#7e22ce">transition()</text>
</g>
<!-- exec -->
<g id="node6" class="node">
<title>exec</title>
<path fill="#fef9c3" stroke="#a16207" stroke-width="1.2" d="M1196.34,-251.53C1196.34,-251.53 1031.66,-251.53 1031.66,-251.53 1025.66,-251.53 1019.66,-245.53 1019.66,-239.53 1019.66,-239.53 1019.66,-218.25 1019.66,-218.25 1019.66,-212.25 1025.66,-206.25 1031.66,-206.25 1031.66,-206.25 1196.34,-206.25 1196.34,-206.25 1202.34,-206.25 1208.34,-212.25 1208.34,-218.25 1208.34,-218.25 1208.34,-239.53 1208.34,-239.53 1208.34,-245.53 1202.34,-251.53 1196.34,-251.53"/>
<text xml:space="preserve" text-anchor="start" x="1066" y="-234.39" font-family="Helvetica,sans-Serif" font-weight="bold" font-size="10.00">SwarmExecutor</text>
<text xml:space="preserve" text-anchor="start" x="1139.5" y="-234.39" font-family="Helvetica,sans-Serif" font-size="10.00"> </text>
<text xml:space="preserve" text-anchor="start" x="1142.5" y="-234.39" font-family="Helvetica,sans-Serif" font-size="8.00">(trait)</text>
<text xml:space="preserve" text-anchor="start" x="1032.62" y="-225.34" font-family="Menlo" font-size="9.00">DefaultSwarmExecutor::run(plan)</text>
<text xml:space="preserve" text-anchor="start" x="1035.25" y="-216.34" font-family="Menlo" font-size="9.00">└─ acteon_swarm::execute_swarm</text>
</g>
<!-- spawn&#45;&gt;exec -->
<g id="edge9" class="edge">
<title>spawn&#45;&gt;exec</title>
<path fill="none" stroke="#64748b" stroke-width="1.1" d="M950.58,-228.89C969.47,-228.89 989.97,-228.89 1009.87,-228.89"/>
<polygon fill="#64748b" stroke="#64748b" stroke-width="1.1" points="1009.61,-231.69 1017.61,-228.89 1009.61,-226.09 1009.61,-231.69"/>
<text xml:space="preserve" text-anchor="middle" x="984.88" y="-233.09" font-family="Helvetica,sans-Serif" font-size="9.00" fill="#475569">run(plan)</text>
</g>
<!-- states -->
<g id="node10" class="node">
<title>states</title>
<text xml:space="preserve" text-anchor="start" x="866.75" y="-123.75" font-family="Helvetica,sans-Serif" font-weight="bold" font-size="10.00">state machine</text>
<polygon fill="#fef9c3" stroke="none" points="798.12,-93.75 798.12,-115 847.88,-115 847.88,-93.75 798.12,-93.75"/>
<polygon fill="none" stroke="#a16207" points="798.12,-93.75 798.12,-115 847.88,-115 847.88,-93.75 798.12,-93.75"/>
<text xml:space="preserve" text-anchor="start" x="803.12" y="-101.75" font-family="Helvetica,sans-Serif" font-size="10.00">accepted</text>
<text xml:space="preserve" text-anchor="start" x="853.88" y="-100.62" font-family="Helvetica,sans-Serif" font-size="10.00">→</text>
<polygon fill="#fef9c3" stroke="none" points="869.62,-93.75 869.62,-115 923.12,-115 923.12,-93.75 869.62,-93.75"/>
<polygon fill="none" stroke="#a16207" points="869.62,-93.75 869.62,-115 923.12,-115 923.12,-93.75 869.62,-93.75"/>
<text xml:space="preserve" text-anchor="start" x="880.62" y="-101.75" font-family="Helvetica,sans-Serif" font-size="10.00">running</text>
<text xml:space="preserve" text-anchor="start" x="929.12" y="-100.62" font-family="Helvetica,sans-Serif" font-size="10.00">→</text>
<polygon fill="#bbf7d0" stroke="none" points="944.88,-93.75 944.88,-115 999.88,-115 999.88,-93.75 944.88,-93.75"/>
<polygon fill="none" stroke="#15803d" points="944.88,-93.75 944.88,-115 999.88,-115 999.88,-93.75 944.88,-93.75"/>
<text xml:space="preserve" text-anchor="start" x="949.88" y="-101.75" font-family="Helvetica,sans-Serif" font-size="10.00">completed</text>
<polygon fill="#fecaca" stroke="none" points="944.88,-70.5 944.88,-91.75 999.88,-91.75 999.88,-70.5 944.88,-70.5"/>
<polygon fill="none" stroke="#b91c1c" points="944.88,-70.5 944.88,-91.75 999.88,-91.75 999.88,-70.5 944.88,-70.5"/>
<text xml:space="preserve" text-anchor="start" x="960.75" y="-78.5" font-family="Helvetica,sans-Serif" font-size="10.00">failed</text>
<polygon fill="#fed7aa" stroke="none" points="869.62,-47.25 869.62,-68.5 923.12,-68.5 923.12,-47.25 869.62,-47.25"/>
<polygon fill="none" stroke="#b45309" points="869.62,-47.25 869.62,-68.5 923.12,-68.5 923.12,-47.25 869.62,-47.25"/>
<text xml:space="preserve" text-anchor="start" x="874.62" y="-55.25" font-family="Helvetica,sans-Serif" font-size="10.00">cancelling</text>
<text xml:space="preserve" text-anchor="start" x="929.12" y="-54.12" font-family="Helvetica,sans-Serif" font-size="10.00">→</text>
<polygon fill="#fed7aa" stroke="none" points="944.88,-47.25 944.88,-68.5 999.88,-68.5 999.88,-47.25 944.88,-47.25"/>
<polygon fill="none" stroke="#b45309" points="944.88,-47.25 944.88,-68.5 999.88,-68.5 999.88,-47.25 944.88,-47.25"/>
<text xml:space="preserve" text-anchor="start" x="951.75" y="-55.25" font-family="Helvetica,sans-Serif" font-size="10.00">cancelled</text>
<polygon fill="#fed7aa" stroke="none" points="944.88,-24 944.88,-45.25 999.88,-45.25 999.88,-24 944.88,-24"/>
<polygon fill="none" stroke="#b45309" points="944.88,-24 944.88,-45.25 999.88,-45.25 999.88,-24 944.88,-24"/>
<text xml:space="preserve" text-anchor="start" x="951" y="-32" font-family="Helvetica,sans-Serif" font-size="10.00">timed_out</text>
</g>
<!-- spawn&#45;&gt;states -->
<!-- claude -->
<g id="node7" class="node">
<title>claude</title>
<path fill="#e0f2fe" stroke="#0284c7" stroke-width="1.2" d="M1548.59,-251.53C1548.59,-251.53 1427.41,-251.53 1427.41,-251.53 1421.41,-251.53 1415.41,-245.53 1415.41,-239.53 1415.41,-239.53 1415.41,-218.25 1415.41,-218.25 1415.41,-212.25 1421.41,-206.25 1427.41,-206.25 1427.41,-206.25 1548.59,-206.25 1548.59,-206.25 1554.59,-206.25 1560.59,-212.25 1560.59,-218.25 1560.59,-218.25 1560.59,-239.53 1560.59,-239.53 1560.59,-245.53 1554.59,-251.53 1548.59,-251.53"/>
<text xml:space="preserve" text-anchor="start" x="1444.5" y="-234.39" font-family="Helvetica,sans-Serif" font-weight="bold" font-size="10.00">Claude Agent SDK</text>
<text xml:space="preserve" text-anchor="start" x="1459.5" y="-225.34" font-family="Helvetica,sans-Serif" font-size="9.00">subprocesses</text>
<text xml:space="preserve" text-anchor="start" x="1428.38" y="-216.34" font-family="Helvetica,sans-Serif" font-size="9.00">planner · coder · reviewer · …</text>
</g>
<!-- exec&#45;&gt;claude -->
<g id="edge10" class="edge">
<title>exec&#45;&gt;claude</title>
<path fill="none" stroke="#64748b" stroke-width="1.1" d="M1143.38,-251.99C1173.1,-273.77 1221.36,-304.92 1269,-317.59 1324.84,-332.44 1345.6,-339.66 1399,-317.59 1427.43,-305.84 1451.54,-280.13 1467.46,-259.4"/>
<polygon fill="#64748b" stroke="#64748b" stroke-width="1.1" points="1469.64,-261.17 1472.16,-253.07 1465.14,-257.82 1469.64,-261.17"/>
<text xml:space="preserve" text-anchor="middle" x="1312" y="-336.6" font-family="Helvetica,sans-Serif" font-size="9.00" fill="#475569">spawn agents</text>
</g>
<!-- tesserai -->
<g id="node8" class="node">
<title>tesserai</title>
<path fill="#fef3c7" stroke="#b45309" stroke-width="1.2" d="M1370.96,-251.53C1370.96,-251.53 1297.04,-251.53 1297.04,-251.53 1291.04,-251.53 1285.04,-245.53 1285.04,-239.53 1285.04,-239.53 1285.04,-218.25 1285.04,-218.25 1285.04,-212.25 1291.04,-206.25 1297.04,-206.25 1297.04,-206.25 1370.96,-206.25 1370.96,-206.25 1376.96,-206.25 1382.96,-212.25 1382.96,-218.25 1382.96,-218.25 1382.96,-239.53 1382.96,-239.53 1382.96,-245.53 1376.96,-251.53 1370.96,-251.53"/>
<text xml:space="preserve" text-anchor="start" x="1307" y="-234.39" font-family="Helvetica,sans-Serif" font-weight="bold" font-size="10.00">TesseraiDB</text>
<text xml:space="preserve" text-anchor="start" x="1304.38" y="-225.34" font-family="Helvetica,sans-Serif" font-size="9.00">twins + shared</text>
<text xml:space="preserve" text-anchor="start" x="1298" y="-216.34" font-family="Helvetica,sans-Serif" font-size="9.00">semantic memory</text>
</g>
<!-- exec&#45;&gt;tesserai -->
<g id="edge11" class="edge">
<title>exec&#45;&gt;tesserai</title>
<path fill="none" stroke="#64748b" stroke-width="1.1" d="M1208.9,-228.89C1231.38,-228.89 1254.73,-228.89 1275.08,-228.89"/>
<polygon fill="#64748b" stroke="#64748b" stroke-width="1.1" points="1274.84,-231.69 1282.84,-228.89 1274.84,-226.09 1274.84,-231.69"/>
<text xml:space="preserve" text-anchor="middle" x="1246.69" y="-242.84" font-family="Helvetica,sans-Serif" font-size="9.00" fill="#475569">knowledge</text>
<text xml:space="preserve" text-anchor="middle" x="1246.69" y="-233.09" font-family="Helvetica,sans-Serif" font-size="9.00" fill="#475569">graph</text>
</g>
<!-- reaper -->
<g id="node9" class="node">
<title>reaper</title>
<path fill="#fef9c3" stroke="#a16207" stroke-width="1.2" d="M1713.21,-256.03C1713.21,-256.03 1604.79,-256.03 1604.79,-256.03 1598.79,-256.03 1592.79,-250.03 1592.79,-244.03 1592.79,-244.03 1592.79,-213.75 1592.79,-213.75 1592.79,-207.75 1598.79,-201.75 1604.79,-201.75 1604.79,-201.75 1713.21,-201.75 1713.21,-201.75 1719.21,-201.75 1725.21,-207.75 1725.21,-213.75 1725.21,-213.75 1725.21,-244.03 1725.21,-244.03 1725.21,-250.03 1719.21,-256.03 1713.21,-256.03"/>
<text xml:space="preserve" text-anchor="start" x="1630.12" y="-238.89" font-family="Helvetica,sans-Serif" font-weight="bold" font-size="10.00">Reaper Task</text>
<text xml:space="preserve" text-anchor="start" x="1609.88" y="-229.84" font-family="Helvetica,sans-Serif" font-size="9.00">spawn_reaper(24h, 5m)</text>
<text xml:space="preserve" text-anchor="start" x="1605.75" y="-220.84" font-family="Helvetica,sans-Serif" font-size="9.00">reap_terminal_older_than</text>
<text xml:space="preserve" text-anchor="start" x="1618.5" y="-211.84" font-family="Helvetica,sans-Serif" font-size="9.00">+ idempotency keys</text>
</g>
<!-- reaper&#45;&gt;registry -->
<g id="edge13" class="edge">
<title>reaper&#45;&gt;registry</title>
<path fill="none" stroke="#a16207" stroke-width="1.1" stroke-dasharray="5,2" d="M1642.99,-256.41C1628.54,-277.88 1605.24,-307.02 1577,-322.53 1476,-378.02 1173.44,-342.76 1060,-363.03 1036,-367.32 1010.84,-373.97 987.04,-381.33"/>
<polygon fill="#a16207" stroke="#a16207" stroke-width="1.1" points="986.37,-378.61 979.58,-383.68 988.05,-383.95 986.37,-378.61"/>
<text xml:space="preserve" text-anchor="middle" x="1586.73" y="-341.48" font-family="Helvetica,sans-Serif" font-size="9.00" fill="#a16207">reap terminal</text>
<text xml:space="preserve" text-anchor="middle" x="1586.73" y="-331.73" font-family="Helvetica,sans-Serif" font-size="9.00" fill="#a16207">+ idempotency</text>
</g>
<!-- api -->
<g id="node11" class="node">
<title>api</title>
<path fill="#cffafe" stroke="#0e7490" stroke-width="1.2" d="M1742.34,-464.31C1742.34,-464.31 1577.66,-464.31 1577.66,-464.31 1571.66,-464.31 1565.66,-458.31 1565.66,-452.31 1565.66,-452.31 1565.66,-398.03 1565.66,-398.03 1565.66,-392.03 1571.66,-386.03 1577.66,-386.03 1577.66,-386.03 1742.34,-386.03 1742.34,-386.03 1748.34,-386.03 1754.34,-392.03 1754.34,-398.03 1754.34,-398.03 1754.34,-452.31 1754.34,-452.31 1754.34,-458.31 1748.34,-464.31 1742.34,-464.31"/>
<text xml:space="preserve" text-anchor="start" x="1578.62" y="-447.17" font-family="Helvetica,sans-Serif" font-weight="bold" font-size="10.00">HTTP API</text>
<text xml:space="preserve" text-anchor="start" x="1623.62" y="-447.17" font-family="Helvetica,sans-Serif" font-size="10.00"> </text>
<text xml:space="preserve" text-anchor="start" x="1626.62" y="-447.17" font-family="Helvetica,sans-Serif" font-size="8.00">(feature = &quot;swarm&quot;)</text>
<text xml:space="preserve" text-anchor="start" x="1578.62" y="-438.12" font-family="Menlo" font-size="9.00">GET &#160;/v1/swarm/runs</text>
<text xml:space="preserve" text-anchor="start" x="1578.62" y="-429.12" font-family="Menlo" font-size="9.00">GET &#160;/v1/swarm/runs/{id}</text>
<text xml:space="preserve" text-anchor="start" x="1578.62" y="-420.12" font-family="Menlo" font-size="9.00">POST /v1/swarm/runs/{id}/cancel</text>
<text xml:space="preserve" text-anchor="start" x="1578.62" y="-412.07" font-family="Helvetica,sans-Serif" font-size="8.00" fill="#475569">· pagination: (page, total)</text>
<text xml:space="preserve" text-anchor="start" x="1578.62" y="-404.07" font-family="Helvetica,sans-Serif" font-size="8.00" fill="#475569">· MAX_API_PAGE = 500</text>
<text xml:space="preserve" text-anchor="start" x="1616.88" y="-396.07" font-family="Helvetica,sans-Serif" font-size="8.00" fill="#475569">· unknown status → 400</text>
</g>
<!-- api&#45;&gt;registry -->
<g id="edge15" class="edge">
<title>api&#45;&gt;registry</title>
<path fill="none" stroke="#0e7490" stroke-width="1.1" d="M1622.2,-464.71C1595.7,-489.43 1557.99,-519.04 1518,-532.44 1421.5,-564.8 1158.35,-558.65 1060,-532.44 1020.99,-522.05 981.66,-501.37 949.2,-480.92"/>
<polygon fill="#0e7490" stroke="#0e7490" stroke-width="1.1" points="950.75,-478.59 942.5,-476.63 947.73,-483.3 950.75,-478.59"/>
<text xml:space="preserve" text-anchor="middle" x="1271" y="-555.12" font-family="Helvetica,sans-Serif" font-size="9.00" fill="#0e7490">list / get / cancel</text>
</g>
<!-- ui -->
<g id="node13" class="node">
<title>ui</title>
<path fill="#dbeafe" stroke="#1d4ed8" stroke-width="1.2" d="M1490.09,-447.81C1490.09,-447.81 1323.91,-447.81 1323.91,-447.81 1317.91,-447.81 1311.91,-441.81 1311.91,-435.81 1311.91,-435.81 1311.91,-414.53 1311.91,-414.53 1311.91,-408.53 1317.91,-402.53 1323.91,-402.53 1323.91,-402.53 1490.09,-402.53 1490.09,-402.53 1496.09,-402.53 1502.09,-408.53 1502.09,-414.53 1502.09,-414.53 1502.09,-435.81 1502.09,-435.81 1502.09,-441.81 1496.09,-447.81 1490.09,-447.81"/>
<text xml:space="preserve" text-anchor="start" x="1369.5" y="-430.67" font-family="Helvetica,sans-Serif" font-weight="bold" font-size="10.00">UI / SDK clients</text>
<text xml:space="preserve" text-anchor="start" x="1375.12" y="-421.62" font-family="Helvetica,sans-Serif" font-size="9.00">SwarmRuns.tsx</text>
<text xml:space="preserve" text-anchor="start" x="1324.88" y="-412.62" font-family="Helvetica,sans-Serif" font-size="9.00">5 polyglot SDKs (URL&#45;encoded run_ids)</text>
</g>
<!-- ui&#45;&gt;api -->
<g id="edge17" class="edge">
<title>ui&#45;&gt;api</title>
<path fill="none" stroke="#64748b" stroke-width="1.1" d="M1502.65,-425.17C1520.17,-425.17 1538.52,-425.17 1556.26,-425.17"/>
<polygon fill="#64748b" stroke="#64748b" stroke-width="1.1" points="1555.81,-427.97 1563.81,-425.17 1555.81,-422.37 1555.81,-427.97"/>
<text xml:space="preserve" text-anchor="middle" x="1533.88" y="-429.37" font-family="Helvetica,sans-Serif" font-size="9.00" fill="#475569">HTTP</text>
</g>
<!-- hitl_cancel -->
<g id="node14" class="node">
<title>hitl_cancel</title>
<path fill="#fee2e2" stroke="#b91c1c" stroke-width="1.2" d="M1961.84,-447.81C1961.84,-447.81 1830.16,-447.81 1830.16,-447.81 1824.16,-447.81 1818.16,-441.81 1818.16,-435.81 1818.16,-435.81 1818.16,-414.53 1818.16,-414.53 1818.16,-408.53 1824.16,-402.53 1830.16,-402.53 1830.16,-402.53 1961.84,-402.53 1961.84,-402.53 1967.84,-402.53 1973.84,-408.53 1973.84,-414.53 1973.84,-414.53 1973.84,-435.81 1973.84,-435.81 1973.84,-441.81 1967.84,-447.81 1961.84,-447.81"/>
<text xml:space="preserve" text-anchor="start" x="1864.5" y="-430.67" font-family="Helvetica,sans-Serif" font-weight="bold" font-size="10.00">POST /cancel</text>
<text xml:space="preserve" text-anchor="start" x="1831.12" y="-421.62" font-family="Helvetica,sans-Serif" font-size="9.00">per&#45;run: flips CancellationToken</text>
<text xml:space="preserve" text-anchor="start" x="1840.5" y="-412.62" font-family="Helvetica,sans-Serif" font-size="9.00">→ Cancelling → Cancelled</text>
</g>
<!-- hitl_cancel&#45;&gt;api -->
<g id="edge18" class="edge">
<title>hitl_cancel&#45;&gt;api</title>
<path fill="none" stroke="#b91c1c" stroke-width="1.1" stroke-dasharray="5,2" d="M1817.63,-425.17C1800.45,-425.17 1782,-425.17 1764,-425.17"/>
<polygon fill="#b91c1c" stroke="#b91c1c" stroke-width="1.1" points="1764.3,-422.37 1756.3,-425.17 1764.3,-427.97 1764.3,-422.37"/>
<text xml:space="preserve" text-anchor="middle" x="1786.25" y="-429.37" font-family="Helvetica,sans-Serif" font-size="9.00" fill="#b91c1c">cancel</text>
</g>
<!-- hitl_silence -->
<g id="node15" class="node">
<title>hitl_silence</title>
<path fill="#fee2e2" stroke="#b91c1c" stroke-width="1.2" d="M2155.09,-447.81C2155.09,-447.81 2048.91,-447.81 2048.91,-447.81 2042.91,-447.81 2036.91,-441.81 2036.91,-435.81 2036.91,-435.81 2036.91,-414.53 2036.91,-414.53 2036.91,-408.53 2042.91,-402.53 2048.91,-402.53 2048.91,-402.53 2155.09,-402.53 2155.09,-402.53 2161.09,-402.53 2167.09,-408.53 2167.09,-414.53 2167.09,-414.53 2167.09,-435.81 2167.09,-435.81 2167.09,-441.81 2161.09,-447.81 2155.09,-447.81"/>
<text xml:space="preserve" text-anchor="start" x="2084.75" y="-430.67" font-family="Helvetica,sans-Serif" font-weight="bold" font-size="10.00">Silence</text>
<text xml:space="preserve" text-anchor="start" x="2049.88" y="-421.62" font-family="Helvetica,sans-Serif" font-size="9.00">action_type = swarm.goal</text>
<text xml:space="preserve" text-anchor="start" x="2066.75" y="-412.62" font-family="Helvetica,sans-Serif" font-size="9.00">blocks new goals</text>
</g>
<!-- hitl_cancel&#45;&gt;hitl_silence -->
<!-- hitl_silence&#45;&gt;gateway -->
<g id="edge19" class="edge">
<title>hitl_silence&#45;&gt;gateway</title>
<path fill="none" stroke="#b91c1c" stroke-width="1.1" stroke-dasharray="5,2" d="M2086.62,-448.04C2067.51,-474.17 2032.22,-515.48 1990,-532.44 1913.03,-563.36 575.86,-558.16 497,-532.44 460.62,-520.58 425.76,-495.93 399.13,-473.25"/>
<polygon fill="#b91c1c" stroke="#b91c1c" stroke-width="1.1" points="400.97,-471.14 393.09,-468.01 397.3,-475.37 400.97,-471.14"/>
<text xml:space="preserve" text-anchor="middle" x="929" y="-555.12" font-family="Helvetica,sans-Serif" font-size="9.00" fill="#b91c1c">blocks dispatch</text>
</g>
<!-- hitl_cb -->
<g id="node16" class="node">
<title>hitl_cb</title>
<path fill="#fee2e2" stroke="#b91c1c" stroke-width="1.2" d="M2315.21,-447.81C2315.21,-447.81 2242.79,-447.81 2242.79,-447.81 2236.79,-447.81 2230.79,-441.81 2230.79,-435.81 2230.79,-435.81 2230.79,-414.53 2230.79,-414.53 2230.79,-408.53 2236.79,-402.53 2242.79,-402.53 2242.79,-402.53 2315.21,-402.53 2315.21,-402.53 2321.21,-402.53 2327.21,-408.53 2327.21,-414.53 2327.21,-414.53 2327.21,-435.81 2327.21,-435.81 2327.21,-441.81 2321.21,-447.81 2315.21,-447.81"/>
<text xml:space="preserve" text-anchor="start" x="2243.75" y="-430.67" font-family="Helvetica,sans-Serif" font-weight="bold" font-size="10.00">Circuit Breaker</text>
<text xml:space="preserve" text-anchor="start" x="2243.75" y="-421.62" font-family="Helvetica,sans-Serif" font-size="9.00">provider = swarm</text>
<text xml:space="preserve" text-anchor="start" x="2244.88" y="-412.62" font-family="Helvetica,sans-Serif" font-size="9.00">entire fleet drops</text>
</g>
<!-- hitl_silence&#45;&gt;hitl_cb -->
<!-- hitl_cb&#45;&gt;gateway -->
<g id="edge20" class="edge">
<title>hitl_cb&#45;&gt;gateway</title>
<path fill="none" stroke="#b91c1c" stroke-width="1.1" stroke-dasharray="5,2" d="M2266.36,-448.41C2250.7,-474.46 2221.33,-515.31 2183,-532.44 2097.49,-570.67 586.05,-561.48 497,-532.44 460.62,-520.58 425.76,-495.93 399.13,-473.25"/>
<polygon fill="#b91c1c" stroke="#b91c1c" stroke-width="1.1" points="400.97,-471.14 393.09,-468.01 397.3,-475.37 400.97,-471.14"/>
<text xml:space="preserve" text-anchor="middle" x="658" y="-555.12" font-family="Helvetica,sans-Serif" font-size="9.00" fill="#b91c1c">trips at provider</text>
</g>
<!-- hitl_quota -->
<g id="node17" class="node">
<title>hitl_quota</title>
<path fill="#fee2e2" stroke="#b91c1c" stroke-width="1.2" d="M2499.59,-447.81C2499.59,-447.81 2402.41,-447.81 2402.41,-447.81 2396.41,-447.81 2390.41,-441.81 2390.41,-435.81 2390.41,-435.81 2390.41,-414.53 2390.41,-414.53 2390.41,-408.53 2396.41,-402.53 2402.41,-402.53 2402.41,-402.53 2499.59,-402.53 2499.59,-402.53 2505.59,-402.53 2511.59,-408.53 2511.59,-414.53 2511.59,-414.53 2511.59,-435.81 2511.59,-435.81 2511.59,-441.81 2505.59,-447.81 2499.59,-447.81"/>
<text xml:space="preserve" text-anchor="start" x="2437.12" y="-430.67" font-family="Helvetica,sans-Serif" font-weight="bold" font-size="10.00">Quota</text>
<text xml:space="preserve" text-anchor="start" x="2403.38" y="-421.62" font-family="Helvetica,sans-Serif" font-size="9.00">per tenant / action_type</text>
<text xml:space="preserve" text-anchor="start" x="2410.12" y="-412.62" font-family="Helvetica,sans-Serif" font-size="9.00">block · drop · throttle</text>
</g>
<!-- hitl_cb&#45;&gt;hitl_quota -->
<!-- hitl_quota&#45;&gt;gateway -->
<g id="edge21" class="edge">
<title>hitl_quota&#45;&gt;gateway</title>
<path fill="none" stroke="#b91c1c" stroke-width="1.1" stroke-dasharray="5,2" d="M2436.36,-448.02C2418.13,-474.12 2384.29,-515.42 2343,-532.44 2248.18,-571.53 594.5,-564.24 497,-532.44 460.62,-520.58 425.76,-495.93 399.13,-473.25"/>
<polygon fill="#b91c1c" stroke="#b91c1c" stroke-width="1.1" points="400.97,-471.14 393.09,-468.01 397.3,-475.37 400.97,-471.14"/>
<text xml:space="preserve" text-anchor="middle" x="815" y="-555.12" font-family="Helvetica,sans-Serif" font-size="9.00" fill="#b91c1c">caps throughput</text>
</g>
</g>
</svg>
