<?xml version="1.0" encoding="UTF-8"?>
<!DOCTYPE svg PUBLIC "-//W3C//DTD SVG 1.1//EN" "http://www.w3.org/Graphics/SVG/1.1/DTD/svg11.dtd">
<!-- Creator: CorelDRAW X8 -->
<svg xmlns="http://www.w3.org/2000/svg" xml:space="preserve"  version="1.1" style="shape-rendering:geometricPrecision; text-rendering:geometricPrecision; image-rendering:optimizeQuality; fill-rule:evenodd; clip-rule:evenodd"
viewBox="634 370 1052 1552"
 xmlns:xlink="http://www.w3.org/1999/xlink">
 <defs>
  <style type="text/css">
   <![CDATA[
    .fil0 {fill:none}
    .fil3 {fill:#1D2E4A}
    .fil7 {fill:#7B9CAB}
    .fil6 {fill:#7B9CAB}
    .fil5 {fill:#98AEB9}
    .fil4 {fill:#C7DAE1}
    .fil2 {fill:white}
    .fil1 {fill:#1D2E4A;fill-rule:nonzero}
    @media (prefers-color-scheme: dark) {
      .fil1 {fill:#C7DAE1}
    }
   ]]>
  </style>
 </defs>
 <g id="Layer_x0020_1">
  <metadata id="CorelCorpID_0Corel-Layer"/>
  <rect class="fil0" width="2314" height="2314"/>
  <path class="fil1" d="M788 1701c4,0 8,1 10,2 3,2 6,5 8,10l52 94c1,1 1,2 0,2 0,1 -1,1 -2,1l-20 0c-1,0 -3,0 -3,-2l-11 -20 -74 0 -11 20c0,2 -2,2 -3,2l-21 0c-1,0 -2,0 -2,-1 0,0 0,-1 0,-2l52 -94c2,-5 5,-8 7,-10 3,-1 6,-2 9,-2l9 0zm-30 69l54 0 -25 -46c-1,-1 -1,-1 -2,-1l-1 0c-1,0 -1,0 -2,1l-24 46zm231 -69c2,0 3,1 3,3l0 16c0,2 -1,3 -3,3l-70 0c-4,0 -7,1 -10,1 -3,1 -5,2 -6,4 -2,1 -3,4 -4,6 0,3 -1,6 -1,11l0 22c0,4 1,7 1,10 1,3 2,5 4,7 1,1 3,3 6,3 3,1 6,1 10,1l70 0c2,0 3,1 3,4l0 15c0,2 -1,3 -3,3l-71 0c-8,0 -15,0 -20,-2 -6,-1 -10,-4 -14,-7 -3,-3 -6,-7 -7,-13 -2,-5 -3,-11 -3,-19l0 -27c0,-7 1,-14 3,-19 1,-5 4,-9 7,-13 4,-3 8,-5 14,-7 5,-1 12,-2 20,-2l71 0zm149 0c3,0 4,1 4,3l0 16c0,2 -1,3 -4,3l-49 0 0 84c0,2 -1,3 -3,3l-17 0c-3,0 -4,-1 -4,-3l0 -84 -49 0c-2,0 -3,-1 -3,-3l0 -16c0,-2 1,-3 3,-3l122 0zm137 0c2,0 3,1 3,3l0 15c0,3 -1,4 -3,4l-69 0c-4,0 -7,0 -10,1 -2,0 -5,2 -6,3 -2,2 -3,4 -4,7 0,2 -1,6 -1,10l0 2 89 0c2,0 3,1 3,3l0 12c0,3 -1,4 -3,4l-89 0 0 2c0,4 1,8 1,11 1,2 2,5 4,6 1,2 4,3 6,4 3,0 6,1 10,1l69 0c2,0 3,1 3,3l0 15c0,2 -1,3 -3,3l-69 0c-8,0 -15,0 -20,-2 -6,-1 -10,-4 -14,-7 -3,-3 -6,-7 -8,-13 -1,-5 -2,-11 -2,-19l0 -27c0,-7 1,-14 2,-19 2,-5 5,-9 8,-13 4,-3 8,-5 14,-7 5,-1 12,-2 20,-2l69 0zm123 0c8,0 14,1 20,2 5,2 10,4 14,7 3,4 6,8 7,13 2,5 2,12 2,19l0 27c0,8 0,14 -2,19 -1,6 -4,10 -7,13 -4,3 -9,6 -14,7 -6,2 -12,2 -20,2l-49 0c-8,0 -14,0 -20,-2 -5,-1 -10,-4 -13,-7 -4,-3 -6,-7 -8,-13 -2,-5 -3,-11 -3,-19l0 -27c0,-7 1,-14 3,-19 2,-5 4,-9 8,-13 3,-3 8,-5 13,-7 6,-1 12,-2 20,-2l49 0zm-69 66c0,4 1,8 1,11 1,2 2,5 4,6 1,2 3,3 6,4 3,0 6,1 10,1l47 0c4,0 7,-1 10,-1 2,-1 5,-2 6,-4 2,-1 3,-4 4,-6 0,-3 1,-7 1,-11l0 -23c0,-4 -1,-8 -1,-10 -1,-3 -2,-5 -4,-7 -1,-1 -4,-3 -6,-3 -3,-1 -6,-1 -10,-1l-47 0c-4,0 -7,0 -10,1 -3,0 -5,2 -6,3 -2,2 -3,4 -4,7 0,2 -1,6 -1,10l0 23zm170 -66c3,0 5,0 6,0 2,0 4,1 5,2 1,0 2,1 3,2 2,2 3,3 4,5l59 77c0,0 1,1 2,1l1 0c1,0 1,-1 1,-2l0 -82c0,-2 1,-3 4,-3l16 0c2,0 4,1 4,3l0 90c0,7 -2,11 -4,13 -2,2 -6,3 -11,3l-13 0c-2,0 -4,0 -6,0 -2,0 -3,-1 -4,-1 -2,-1 -3,-2 -4,-3 -1,-1 -3,-3 -4,-5l-58 -76c-1,-1 -2,-1 -3,-1l-1 0c-1,0 -1,0 -1,1l0 82c0,2 -1,3 -4,3l-16 0c-2,0 -4,-1 -4,-3l0 -90c0,-6 1,-10 4,-13 2,-2 6,-3 10,-3l14 0z"/>
  <path class="fil1" d="M740 1867l-8 -20 -7 20 15 0zm-11 -27l7 0 18 45 -7 0 -5 -13 -19 0 -5 13 -7 0 18 -45zm51 -1c6,0 11,2 15,5 3,3 5,6 5,10l-6 0c-1,-3 -2,-5 -5,-7 -2,-2 -5,-2 -9,-2 -4,0 -8,1 -11,4 -3,3 -5,8 -5,14 0,6 2,10 4,13 3,3 7,5 12,5 5,0 9,-2 11,-5 2,-2 3,-4 3,-7l7 0c-1,4 -3,8 -6,12 -4,3 -9,5 -16,5 -5,0 -10,-1 -14,-4 -5,-5 -7,-11 -7,-20 0,-6 2,-12 5,-16 5,-4 10,-7 17,-7zm64 1l0 6 -17 0 0 39 -6 0 0 -39 -16 0 0 -6 39 0zm7 0l7 0 0 45 -7 0 0 -45zm38 -1c9,0 15,3 19,8 3,4 5,9 5,15 0,7 -2,12 -5,17 -5,5 -11,7 -19,7 -7,0 -13,-2 -17,-6 -4,-5 -6,-10 -6,-17 0,-6 2,-11 5,-15 4,-6 10,-9 18,-9zm1 42c6,0 10,-2 13,-6 2,-4 3,-8 3,-13 0,-5 -1,-9 -4,-13 -3,-3 -7,-4 -12,-4 -5,0 -9,1 -13,4 -3,4 -4,8 -4,14 0,5 1,10 4,13 3,3 7,5 13,5zm31 -41l8 0 24 37 0 -37 6 0 0 45 -7 0 -25 -36 0 36 -6 0 0 -45zm53 31c0,2 1,4 2,6 2,3 6,4 11,4 3,0 5,0 7,-1 4,-1 6,-3 6,-6 0,-3 -1,-5 -3,-6 -1,-1 -4,-1 -8,-2l-6 -2c-4,-1 -7,-1 -9,-3 -3,-1 -5,-4 -5,-8 0,-4 2,-7 5,-10 3,-2 7,-4 13,-4 5,0 9,1 12,4 4,2 6,6 6,11l-6 0c-1,-3 -1,-5 -3,-6 -1,-2 -5,-3 -10,-3 -4,0 -6,0 -8,2 -2,1 -3,3 -3,5 0,2 1,4 3,5 2,0 5,1 9,2l7 2c3,0 6,1 8,3 3,2 4,5 4,9 0,5 -2,8 -6,10 -4,2 -8,3 -13,3 -6,0 -11,-1 -14,-4 -4,-3 -5,-6 -5,-11l6 0zm60 -31l33 0 0 6 -27 0 0 13 24 0 0 6 -24 0 0 20 -6 0 0 -45zm61 -1c9,0 15,3 19,8 3,4 5,9 5,15 0,7 -2,12 -6,17 -4,5 -10,7 -18,7 -7,0 -13,-2 -17,-6 -4,-5 -6,-10 -6,-17 0,-6 1,-11 5,-15 4,-6 10,-9 18,-9zm1 42c6,0 10,-2 12,-6 3,-4 4,-8 4,-13 0,-5 -1,-9 -4,-13 -3,-3 -7,-4 -12,-4 -5,0 -10,1 -13,4 -3,4 -4,8 -4,14 0,5 1,10 4,13 2,3 7,5 13,5zm53 -20c3,0 6,-1 7,-2 2,-1 3,-3 3,-6 0,-3 -1,-5 -4,-6 -1,-1 -3,-1 -5,-1l-16 0 0 15 15 0zm-21 -21l22 0c4,0 7,1 9,2 5,2 7,5 7,10 0,3 -1,5 -2,7 -1,2 -3,3 -5,4 2,1 3,2 4,3 1,1 2,3 2,6l0 6c0,1 0,3 1,3 0,2 1,3 2,3l0 1 -8 0c-1,0 -1,-1 -1,-1 0,-1 0,-2 0,-4l-1 -7c0,-3 -1,-5 -3,-6 -1,-1 -3,-1 -6,-1l-15 0 0 19 -6 0 0 -45zm68 -1c5,0 9,1 12,3 5,2 8,6 9,12l-7 0c0,-3 -2,-6 -5,-7 -2,-2 -5,-2 -9,-2 -4,0 -8,1 -11,4 -3,3 -5,8 -5,14 0,5 1,10 4,13 3,3 7,5 12,5 5,0 8,-1 11,-3 3,-3 4,-7 5,-12l-16 0 0 -5 22 0 0 24 -5 0 -1 -6c-2,3 -4,4 -6,5 -3,2 -7,2 -11,2 -6,0 -11,-1 -15,-5 -4,-4 -7,-10 -7,-18 0,-7 3,-13 7,-17 4,-5 10,-7 16,-7zm32 1l36 0 0 6 -29 0 0 13 26 0 0 6 -26 0 0 15 29 0 0 5 -36 0 0 -45zm63 40c2,0 4,0 6,-1 2,0 4,-2 6,-4 1,-2 2,-4 3,-7 0,-2 0,-3 0,-5 0,-5 -1,-10 -3,-13 -3,-3 -7,-4 -12,-4l-11 0 0 34 11 0zm-18 -40l20 0c6,0 11,3 15,7 3,4 5,9 5,15 0,5 -1,9 -3,13 -3,7 -9,10 -17,10l-20 0 0 -45zm69 0l6 0 0 45 -6 0 0 -45zm17 0l8 0 24 37 0 -37 6 0 0 45 -7 0 -25 -36 0 36 -6 0 0 -45zm90 21c3,0 5,-1 7,-2 2,-1 3,-3 3,-6 0,-3 -2,-5 -4,-6 -1,-1 -3,-1 -6,-1l-16 0 0 15 16 0zm-22 -21l22 0c4,0 7,1 9,2 5,2 7,5 7,10 0,3 0,5 -2,7 -1,2 -2,3 -5,4 2,1 4,2 5,3 1,1 1,3 1,6l1 6c0,1 0,3 0,3 0,2 1,3 2,3l0 1 -8 0c0,0 0,-1 0,-1 -1,-1 -1,-2 -1,-4l0 -7c0,-3 -2,-5 -4,-6 -1,-1 -3,-1 -6,-1l-15 0 0 19 -6 0 0 -45zm55 0l0 28c0,3 1,6 2,8 2,3 5,5 10,5 5,0 9,-2 11,-5 1,-2 2,-5 2,-8l0 -28 6 0 0 26c0,5 0,9 -2,12 -3,6 -9,8 -17,8 -8,0 -13,-2 -16,-8 -2,-3 -3,-7 -3,-12l0 -26 7 0zm46 31c0,2 1,4 2,6 2,3 6,4 11,4 3,0 5,0 7,-1 4,-1 6,-3 6,-6 0,-3 -1,-5 -3,-6 -1,-1 -4,-1 -8,-2l-6 -2c-4,-1 -7,-1 -9,-3 -3,-1 -5,-4 -5,-8 0,-4 2,-7 5,-10 3,-2 7,-4 12,-4 6,0 10,1 13,4 4,2 6,6 6,11l-6 0c-1,-3 -2,-5 -3,-6 -2,-2 -5,-3 -10,-3 -4,0 -6,0 -8,2 -2,1 -3,3 -3,5 0,2 1,4 3,5 2,0 5,1 9,2l7 2c3,0 6,1 7,3 4,2 5,5 5,9 0,5 -2,8 -6,10 -4,2 -8,3 -13,3 -6,0 -11,-1 -14,-4 -4,-3 -5,-6 -5,-11l6 0zm76 -31l0 6 -17 0 0 39 -6 0 0 -39 -17 0 0 -6 40 0z"/>
  <g id="_3159776246000">
   <path class="fil2" d="M1158 1626c-25,-11 -50,-22 -76,-37 -25,-14 -52,-31 -77,-51 -25,-19 -48,-41 -68,-66 -19,-26 -34,-54 -45,-80 -11,-25 -17,-48 -23,-76 -6,-29 -12,-65 -16,-108 -3,-43 -3,-94 -3,-119 0,-25 0,-25 0,-25 0,0 0,0 22,-21 22,-21 67,-63 104,-93 37,-30 66,-47 96,-57 29,-11 57,-13 86,-16 29,3 57,5 86,16 29,10 59,27 96,57 37,30 82,72 104,93 22,21 22,21 22,21 0,0 0,0 0,25 0,25 0,76 -4,119 -3,43 -9,79 -15,108 -6,28 -12,51 -23,76 -11,26 -26,54 -45,80 -20,25 -43,47 -68,66 -25,20 -52,37 -77,51 -26,15 -52,26 -76,37z"/>
   <path class="fil3" d="M995 1274c-4,17 -10,43 -14,60 -4,18 -6,27 -7,33 -2,6 -3,8 -3,9 -1,2 -1,3 -7,13l-22 40c-8,-15 -16,-30 -23,-46 -12,-25 -20,-49 -26,-76 -6,-26 -10,-53 -12,-94 -1,-39 -2,-88 -2,-139l14 -12c5,4 11,7 18,10 10,4 22,5 36,7 11,2 23,4 35,6l0 84c3,7 6,15 9,23 4,14 7,30 8,43 1,12 0,21 -4,39zm89 -141c4,-2 11,-4 19,-7 -10,-5 -20,-11 -25,-13 -6,-4 -6,-4 -8,-4 -2,0 -5,0 -7,0 -3,0 -4,0 -8,1 -4,1 -9,3 -12,4 -2,1 -2,1 0,4 3,2 7,8 10,11 3,3 3,3 7,4 4,0 11,1 15,2 3,0 3,0 9,-2zm148 0c-4,-2 -11,-4 -19,-7 10,-5 20,-11 25,-13 6,-4 6,-4 8,-4 2,0 5,0 7,0 3,0 5,0 8,1 4,1 9,3 12,4 2,1 2,1 0,4 -2,2 -7,8 -10,11 -3,3 -3,3 -7,4 -4,0 -11,1 -15,2 -3,0 -3,0 -9,-2zm87 141c4,17 10,43 14,60 4,18 6,27 8,33 1,6 2,8 3,9 0,2 1,3 6,13l22 40c9,-15 17,-30 24,-46 11,-25 19,-49 25,-76 6,-26 10,-53 12,-94 2,-39 2,-88 2,-139l-14 -12c-5,4 -11,7 -18,10 -9,4 -22,5 -35,7 -12,2 -24,4 -36,6l0 84c-3,7 -6,15 -9,23 -4,14 -7,30 -8,43 -1,12 1,21 4,39zm165 -226c0,61 0,121 -2,167 -2,51 -6,85 -17,124 -11,39 -29,83 -52,120 -22,36 -48,65 -78,91 -30,26 -64,48 -99,66 -26,13 -52,23 -79,33 -26,-10 -53,-20 -78,-33 -36,-18 -70,-40 -100,-66 -30,-26 -56,-55 -78,-91 -22,-37 -41,-81 -52,-120 -11,-39 -15,-73 -17,-124 -1,-46 -2,-106 -2,-167l31 -25c-9,-14 -17,-29 -24,-48 -6,-18 -11,-40 -15,-63 23,1 46,3 70,7 21,3 44,9 66,15 -9,-7 -19,-13 -31,-20 -17,-8 -39,-17 -67,-24 -20,-6 -44,-10 -69,-15l27 -25 -106 -84 -16 -128 26 33c0,-7 0,-14 0,-20 -1,-8 -2,-15 -4,-23 -3,-8 -7,-17 -12,-26 -4,-10 -9,-20 -12,-27 -3,-8 -4,-13 -4,-22 -1,-9 -1,-21 2,-33 2,-12 6,-24 15,-39 8,-14 19,-30 31,-46 -1,24 -3,47 -4,63 -1,19 -2,27 -1,34 0,7 1,11 2,13 1,2 3,2 8,-7 5,-10 13,-28 23,-43 9,-16 21,-28 42,-42 13,-8 29,-18 43,-26 -14,25 -28,50 -39,72 -13,25 -21,47 -27,62 -6,15 -9,22 -10,30 -2,7 -2,14 -2,23 0,6 0,13 0,20 15,-14 30,-27 48,-40 15,-11 31,-21 48,-32 -15,25 -29,48 -39,66 -12,19 -19,32 -23,43 -4,12 -7,23 -7,34 -1,10 0,21 1,28 1,7 4,10 8,16 5,7 12,17 20,25 5,7 12,12 18,18 2,-26 4,-52 6,-72 3,-23 5,-38 7,-47 1,-9 2,-11 4,-14 2,-3 6,-7 19,-21 13,-15 35,-40 46,-53 12,-13 12,-13 16,-24 4,-9 10,-25 17,-43 3,9 6,17 8,24 4,13 5,24 3,35 -1,11 -7,21 -18,39 -12,18 -29,43 -38,55 -9,13 -9,13 -10,25l-4 48c-1,12 -1,12 3,23 4,11 12,32 17,44 4,11 5,12 6,14 1,1 3,3 9,8 5,5 15,12 24,20 9,8 18,15 23,18 5,3 6,2 6,-2 0,-5 -1,-13 -4,-24 -2,-11 -5,-24 -5,-36 -1,-13 2,-25 9,-39 7,-15 19,-33 26,-47 8,-14 10,-25 11,-39 1,-11 1,-24 1,-37 9,10 17,21 22,29 7,11 9,19 11,29 1,10 2,22 -1,33 -2,11 -7,20 -10,28 -3,7 -5,13 -6,19 0,6 0,13 3,27 3,13 8,34 13,54 32,-7 64,-11 96,-11 32,0 65,4 96,11 5,-20 11,-41 13,-54 3,-14 3,-21 3,-27 -1,-6 -2,-12 -6,-19 -3,-8 -8,-17 -10,-28 -2,-11 -2,-23 -1,-33 2,-10 4,-18 11,-29 5,-8 13,-19 22,-29 0,13 0,26 1,37 1,14 4,25 11,39 7,14 19,32 26,47 8,14 10,26 9,39 0,12 -3,25 -5,36 -2,11 -3,19 -3,24 0,4 0,5 5,2 5,-3 14,-10 23,-18 9,-8 19,-15 25,-20 5,-5 7,-7 8,-8 1,-2 2,-3 7,-14 4,-12 12,-33 16,-44 4,-11 4,-11 4,-23l-4 -48c-1,-12 -1,-12 -10,-25 -9,-12 -27,-37 -39,-55 -11,-18 -16,-28 -18,-39 -2,-11 0,-22 3,-35 2,-7 5,-15 8,-24 7,18 14,34 17,43 4,11 5,11 16,24 11,13 34,38 47,53 13,14 16,18 18,21 2,3 3,5 5,14 1,9 4,24 6,47 2,20 4,46 6,72 7,-6 13,-11 19,-18 7,-8 14,-18 19,-25 5,-6 7,-9 8,-16 2,-7 2,-18 2,-28 -1,-11 -3,-22 -8,-34 -4,-11 -11,-24 -22,-43 -11,-18 -25,-41 -40,-66 17,11 33,21 48,32 18,13 33,26 48,40 0,-7 1,-14 1,-20 0,-9 -1,-16 -2,-23 -2,-8 -5,-15 -11,-30 -5,-15 -14,-37 -26,-62 -11,-22 -26,-47 -40,-72 14,8 30,18 43,26 21,14 33,26 43,42 9,15 18,33 22,43 5,9 7,9 8,7 1,-2 2,-6 3,-13 0,-7 -1,-15 -2,-34 -1,-16 -2,-39 -4,-63 12,16 23,32 31,46 9,15 13,27 16,39 2,12 2,24 1,33 0,9 -1,14 -4,22 -3,7 -7,17 -12,27 -4,9 -9,18 -11,26 -3,8 -4,15 -5,23 0,6 0,13 0,20l26 -33 -16 128 -106 84 27 25c-25,5 -49,9 -69,15 -28,7 -49,16 -66,24 -13,7 -23,13 -32,20 22,-6 45,-12 67,-15 24,-4 47,-6 70,-7 -5,23 -9,45 -16,63 -6,19 -15,34 -24,48l31 25zm-327 -112c3,0 6,0 9,0 8,-1 17,-2 26,-4 7,-2 14,-4 21,-6l9 -14c-11,-2 -22,-4 -33,-5 -11,-1 -21,-2 -32,-2 -10,0 -21,1 -31,2 -11,1 -23,3 -34,5l9 14c7,2 15,4 22,6 9,2 17,3 25,4 3,0 6,0 9,0z"/>
   <path class="fil4" d="M1054 1565c-15,-10 -31,-22 -46,-34 -14,-12 -27,-24 -39,-36 -11,-13 -22,-27 -31,-39 -9,-13 -16,-25 -24,-40 -8,-15 -16,-32 -23,-50 -6,-17 -11,-34 -15,-51 -4,-16 -7,-32 -9,-45 -2,-13 -2,-23 -3,-34 -1,-10 -1,-20 -1,-38 -1,-19 -1,-47 -1,-71l0 -62 19 -16 -4 -5 -8 -10 -27 21c0,47 0,93 0,122 0,29 0,41 1,55 1,15 2,32 5,51 3,19 8,40 14,62 7,21 14,43 24,63 9,20 20,38 31,54 11,17 23,31 37,46 14,15 31,31 48,45 18,15 37,27 57,38 20,12 43,22 61,29 14,6 26,10 37,14 11,-4 23,-8 37,-14 19,-7 41,-17 61,-29 21,-11 39,-23 57,-38 17,-14 34,-30 48,-45 14,-15 26,-29 37,-46 11,-16 22,-34 32,-54 9,-20 17,-42 23,-63 6,-22 11,-43 14,-62 3,-19 4,-36 5,-51 1,-14 1,-26 1,-55 0,-29 0,-75 0,-122l-26 -21 -9 10 -4 5 19 16 0 62c0,24 0,52 0,71 -1,18 -1,28 -2,38 0,11 -1,21 -3,34 -2,13 -5,29 -9,45 -4,17 -9,34 -15,51 -7,18 -15,35 -23,50 -7,15 -15,27 -24,40 -9,12 -19,26 -31,39 -12,12 -24,24 -39,36 -15,12 -31,24 -46,34 -15,9 -28,16 -43,23 -15,7 -32,14 -47,20 -4,2 -9,4 -13,5 -4,-1 -8,-3 -13,-5 -15,-6 -32,-13 -47,-20 -15,-7 -28,-14 -43,-23zm103 -252l-15 -1c-4,0 -4,0 -7,0l-8 -1c-2,-1 -2,-1 0,1 1,2 4,6 7,9 4,2 9,4 14,5 3,1 6,1 9,1 3,0 6,0 9,-1 6,-1 10,-3 14,-5 3,-3 6,-7 8,-9 1,-2 1,-2 -1,-1l-8 1c-2,0 -2,0 -6,0l-16 1zm93 34l52 -77 22 97 3 18c-16,33 -32,66 -49,95 -17,30 -34,55 -44,69 -9,13 -11,15 -11,16 -1,1 -2,1 -10,5 -8,4 -24,11 -34,15 -11,5 -16,7 -22,8 0,0 0,0 0,0 0,0 0,0 0,0 -5,-1 -11,-3 -21,-8 -11,-4 -27,-11 -35,-15 -8,-4 -8,-4 -9,-5 -1,-1 -3,-3 -12,-16 -9,-14 -27,-39 -44,-69 -16,-29 -33,-62 -49,-95l4 -18 21 -97 52 77c8,34 15,65 19,82 5,21 5,21 5,21 0,0 0,0 13,20l56 85 56 -85c13,-20 13,-20 13,-20 0,0 0,0 5,-21 4,-17 11,-48 19,-82zm30 156c14,-22 25,-42 34,-61 8,-15 14,-29 20,-44l1 2 27 46c-8,11 -16,22 -26,34 -11,12 -26,25 -42,39 -14,11 -29,22 -45,33 11,-17 22,-34 31,-49zm-6 -214c-12,15 -35,40 -51,57 -15,16 -23,24 -27,28 -4,4 -4,4 -17,4l-22 0 -22 0c-13,0 -13,0 -17,-4 -4,-4 -12,-12 -27,-28 -15,-17 -38,-42 -51,-57 -13,-14 -15,-18 -18,-32 -3,-14 -7,-36 -11,-59l36 34 9 8 2 14 9 44 -3 -64 -64 -66 0 -88 42 -90c-17,-18 -36,-36 -59,-52 -27,-20 -61,-37 -90,-48 -28,-11 -52,-16 -64,-18 -12,-2 -12,-2 -12,-2 0,0 0,-1 3,-3l14 -11 3 -3 -10 -8c-10,-7 -30,-23 -49,-38 -19,-15 -37,-29 -47,-37 -9,-7 -9,-7 -9,-8 0,0 0,0 -2,-15 -2,-16 -6,-46 -8,-61l-3 -15 5 5 18 20c4,6 4,6 4,2 0,-4 -1,-12 -2,-25 -2,-14 -4,-32 -8,-48 -5,-16 -12,-29 -17,-39 -4,-10 -7,-16 -8,-25 -2,-8 -3,-18 -2,-28 2,-11 5,-22 9,-33 5,-11 12,-21 15,-26 3,-5 3,-5 3,-2 -1,4 -2,11 -2,24 -1,13 -1,32 1,44 3,13 7,19 10,22 2,3 2,3 4,0 2,-3 6,-9 12,-19 6,-11 13,-26 20,-37 7,-12 14,-19 23,-27 8,-8 20,-16 25,-20 6,-4 6,-4 1,6 -5,10 -16,29 -25,47 -9,19 -17,37 -23,54 -5,17 -8,32 -9,48 0,16 2,31 3,39 1,8 1,8 1,8l1 -1c0,0 0,0 4,-5 4,-6 13,-16 25,-28 12,-12 29,-25 37,-32 8,-6 8,-6 5,-2 -3,5 -9,15 -17,27 -7,13 -15,29 -20,40 -5,10 -7,15 -8,21 -2,5 -3,11 -3,20 -1,10 0,24 0,31 0,7 0,7 6,16 6,8 18,25 24,33 6,9 7,9 7,9 0,0 0,0 5,3 5,3 14,9 19,13l5 3 0 -3c0,-2 0,-6 1,-14 0,-8 0,-19 1,-34 1,-15 3,-34 5,-49 2,-16 4,-28 6,-35 1,-6 1,-6 1,-7 0,0 0,0 13,-15 13,-15 38,-43 51,-58 13,-14 13,-14 15,-19l8 -20c2,-5 2,-5 3,-3 1,2 2,6 2,11 1,6 0,14 -4,23 -4,10 -11,22 -22,39 -11,16 -26,37 -33,48 -7,11 -7,11 -8,24l-3 51 -1 12 5 12 19 49c5,12 5,12 5,13 1,0 2,1 11,9 9,7 27,22 38,30 12,9 17,11 21,12 5,1 8,-1 9,-2 2,-2 2,-4 1,-12 -1,-8 -3,-21 -4,-35 -2,-14 -4,-30 -2,-44 2,-14 8,-26 15,-38 6,-11 13,-21 18,-30 4,-8 6,-14 8,-24 1,-7 2,-16 2,-25 5,6 9,12 12,18 3,8 3,15 3,24 -1,10 -3,20 -7,32 -4,11 -10,22 -11,32 -2,10 1,19 5,36 3,16 9,39 14,62 22,-4 43,-8 62,-10 15,-2 29,-2 41,-2 13,0 26,0 42,2 18,2 39,6 61,10 6,-23 11,-46 15,-62 4,-17 6,-26 4,-36 -1,-10 -7,-21 -10,-32 -4,-12 -7,-22 -7,-32 -1,-9 0,-16 3,-24 2,-6 6,-12 11,-18 1,9 1,18 3,25 1,10 3,16 8,24 4,9 11,19 17,30 7,12 13,24 15,38 3,14 1,30 -1,44 -2,14 -4,27 -5,35 -1,8 0,10 1,12 2,1 5,3 9,2 4,-1 10,-3 21,-12 12,-8 29,-23 38,-30 9,-8 10,-9 11,-9 0,-1 0,-1 5,-13l19 -49 5 -12 -1 -12 -3 -51c-1,-13 -1,-13 -8,-24 -7,-11 -22,-32 -33,-48 -11,-17 -18,-29 -22,-39 -4,-9 -4,-17 -4,-23 0,-5 2,-9 2,-11 1,-2 1,-2 3,3l8 20c2,5 2,5 15,19 13,15 39,43 52,58 12,15 12,15 12,15 0,1 1,1 2,7 1,7 3,19 5,35 2,15 4,34 5,49 1,15 1,26 2,34 0,8 0,12 1,14l0 3 4 -3c5,-4 14,-10 19,-13 5,-3 5,-3 5,-3 1,0 1,0 7,-9 6,-8 18,-25 24,-33 7,-9 7,-9 7,-16 0,-7 0,-21 -1,-31 0,-9 -1,-15 -3,-20 -1,-6 -3,-11 -8,-21 -5,-11 -13,-27 -20,-40 -7,-12 -14,-22 -17,-27 -3,-4 -3,-4 5,2 8,7 25,20 37,32 13,12 21,22 25,28 4,5 4,5 4,5l1 1c0,0 0,0 1,-8 1,-8 3,-23 3,-39 -1,-16 -3,-31 -9,-48 -6,-17 -14,-35 -23,-54 -9,-18 -20,-37 -25,-47 -5,-10 -5,-10 1,-6 5,4 17,12 26,20 9,8 15,15 22,27 7,11 15,26 20,37 6,10 10,16 12,19 2,3 2,3 5,0 2,-3 7,-9 9,-22 2,-12 2,-31 2,-44 -1,-13 -2,-20 -2,-24 -1,-3 -1,-3 2,2 4,5 10,15 15,26 5,11 8,22 9,33 1,10 0,20 -1,28 -2,9 -4,15 -9,25 -5,10 -12,23 -17,39 -4,16 -6,34 -7,48 -2,13 -2,21 -3,25 0,4 0,4 4,-2l18 -20 5 -5 -2 15c-2,15 -7,45 -9,61 -2,15 -2,15 -2,15 0,1 0,1 -9,8 -9,8 -28,22 -47,37 -19,15 -39,31 -49,38l-10 8 3 3 14 11c3,2 4,3 4,3 0,0 0,0 -12,2 -12,2 -36,7 -65,18 -29,11 -63,28 -90,48 -23,16 -41,34 -59,52l43 90 0 88 -65 66 -3 64 9 -44 3 -14 8 -8 36 -34c-4,23 -7,45 -11,59 -3,14 -5,18 -18,32zm-117 6c2,0 3,0 5,0 3,0 5,-1 8,-2 3,-1 7,-2 12,-2 4,1 9,2 14,3 5,1 10,1 13,2 4,0 5,0 7,0 1,-1 2,-1 3,-1 1,-1 1,-1 -5,-3 -6,-3 -18,-9 -25,-12 -7,-3 -10,-4 -12,-4 -1,-1 -3,-1 -5,0 -2,1 -5,2 -7,3 -3,0 -5,1 -7,2 -1,0 -1,0 -1,0 0,0 0,0 0,0 -2,-1 -5,-2 -7,-2 -3,-1 -5,-2 -7,-3 -3,-1 -4,-1 -6,0 -2,0 -4,1 -12,4 -7,3 -19,9 -25,12 -5,2 -5,2 -5,3 1,0 2,0 4,1 1,0 2,0 6,0 3,-1 8,-1 13,-2 5,-1 10,-2 14,-3 5,0 9,1 12,2 4,1 6,2 8,2 2,0 3,0 5,0zm0 -35c11,-5 22,-11 29,-14 8,-4 11,-6 13,-8 2,-1 3,-3 4,-4 1,-2 2,-4 2,-7 0,-3 -1,-6 -3,-11 -3,-5 -7,-11 -9,-14 -2,-3 -2,-3 -2,-2 0,1 -1,2 0,6 2,4 5,11 6,14 2,4 2,4 2,5 -1,0 -1,1 -4,3 -2,2 -7,5 -10,7 -2,1 -2,1 -2,0l4 -6c1,-1 1,-1 -4,1 -4,2 -12,7 -17,9 -4,2 -5,2 -7,2l-2 0 -1 0c-3,0 -3,0 -8,-2 -4,-2 -13,-7 -17,-9 -5,-2 -5,-2 -4,-1l4 6c1,1 1,1 -2,0 -2,-2 -7,-5 -10,-7 -3,-2 -3,-3 -3,-3 -1,-1 -1,-1 1,-5 1,-3 4,-10 6,-14 1,-4 1,-5 1,-6 -1,-1 -1,-1 -3,2 -2,3 -6,9 -9,14 -2,5 -3,8 -3,11 0,3 1,5 2,7 1,1 2,3 4,4 2,2 5,4 13,8 7,3 18,9 29,14zm0 -308c19,-3 35,-6 45,-8 16,-2 16,-3 16,-3 0,0 1,0 2,-1 1,-1 4,-3 9,-11 5,-7 12,-19 20,-31 -16,-3 -30,-6 -44,-8 -17,-2 -33,-3 -48,-3 -15,0 -31,1 -48,3 -13,2 -28,5 -43,8 7,12 14,24 19,31 6,8 8,10 9,11 1,1 2,1 2,1 0,0 1,1 16,3 10,2 27,5 45,8zm60 188c10,1 21,2 30,1 10,-1 18,-4 24,-10 7,-5 12,-13 15,-17l2 -4 -6 -2 -28 -7 -7 -2 3 -1c4,-2 11,-5 14,-6 4,-2 4,-2 6,-2 1,0 2,0 9,2 7,1 18,4 23,5 6,1 6,1 5,1 -1,-1 -4,-2 -10,-6 -7,-3 -17,-9 -22,-12 -6,-4 -6,-4 -6,-4 0,1 0,1 -14,6 -13,6 -40,17 -54,23 -14,5 -14,5 -14,5 0,0 0,0 -2,4 -2,5 -6,13 -8,17 -2,4 -2,5 -2,5 0,0 0,0 0,11 0,11 0,34 0,45 0,12 1,12 1,12 0,0 0,0 2,-12l8 -45c2,-12 2,-12 7,-11 4,1 14,3 24,4zm33 -183c4,3 11,9 15,12 5,3 6,5 7,6 1,0 1,0 9,-7 9,-8 26,-23 52,-41 27,-19 64,-40 93,-58 30,-17 53,-31 79,-50 25,-18 53,-41 68,-52l14 -12 0 -8 1 -35 0 -8 -3 4c-4,4 -11,12 -15,16 -3,4 -3,4 -3,4 0,0 0,-1 0,-12 1,-10 3,-32 4,-48 2,-16 4,-27 7,-38 3,-11 8,-22 13,-32 4,-10 8,-18 10,-26 3,-8 5,-16 4,-27 0,-11 -3,-26 -5,-40 1,9 2,18 1,27 -1,9 -3,18 -7,26 -5,8 -10,14 -13,18 -3,3 -3,3 -10,-9 -8,-12 -22,-36 -32,-52 -11,-17 -17,-24 -24,-32 4,8 9,17 16,34 7,16 17,40 23,55 6,15 7,20 8,26 0,6 0,13 0,25 -1,13 -2,31 -4,52 -2,20 -6,42 -14,62 -7,20 -18,38 -30,52 -12,14 -25,24 -43,37 -19,13 -44,27 -68,42 3,-6 7,-13 9,-19 2,-6 3,-12 4,-17 -6,9 -12,18 -19,25 -7,8 -15,14 -32,25 -18,11 -45,27 -59,35 -14,8 -14,8 -11,3l13 -21c3,-5 3,-5 1,-7 -1,-2 -3,-5 -5,-11 -1,-7 -2,-17 -3,-28 -1,-12 -2,-25 -4,-38 -1,14 -2,29 -5,45 -4,17 -10,35 -18,51 -8,16 -18,29 -23,36 -5,7 -5,7 -5,7 1,0 1,0 4,3zm170 39c-7,9 -14,18 -22,24 -7,7 -15,11 -25,13 -9,2 -22,3 -28,4 -6,0 -6,0 -4,-1 2,-1 7,-4 13,-7 5,-4 12,-8 18,-15 5,-6 10,-15 17,-22 7,-6 17,-11 25,-15 9,-5 17,-9 20,-11 4,-2 4,-2 1,3 -3,6 -8,17 -15,27zm-51 -13c-9,10 -19,25 -24,32 -5,7 -5,7 -6,8 0,0 -2,1 -9,4 -5,2 -15,5 -25,9l-12 -25c20,-19 38,-38 48,-47 11,-11 12,-11 18,-13 7,-3 20,-7 41,-12 20,-4 47,-7 75,-11 -6,18 -12,35 -18,51 -8,19 -17,37 -27,50 -10,13 -20,20 -28,25 -8,5 -14,6 -28,9 -13,1 -32,3 -52,5l-8 -15c16,-1 32,-2 45,-3 14,-1 24,-2 36,-10 12,-7 27,-22 39,-40 11,-18 19,-39 22,-50l4 -10 -10 4c-11,4 -32,11 -47,18 -15,6 -24,11 -34,21zm-335 520c-13,-22 -25,-42 -34,-61 -8,-15 -14,-29 -20,-44l0 2 -28 46c8,11 16,22 26,34 12,12 26,25 43,39 13,11 29,22 44,33 -11,-17 -21,-34 -31,-49zm63 -363c-10,1 -21,2 -30,1 -10,-1 -18,-4 -24,-10 -7,-5 -12,-13 -15,-17l-2 -4 7 -2 27 -7 7 -2 -3 -1c-4,-2 -10,-5 -14,-6 -4,-2 -4,-2 -5,-2 -1,0 -3,0 -10,2 -6,1 -18,4 -23,5 -6,1 -6,1 -5,1 1,-1 4,-2 10,-6 7,-3 17,-9 23,-12 5,-4 5,-4 5,-4 0,1 0,1 14,6 14,6 41,17 54,23 14,5 14,5 14,5 0,0 1,0 3,4 2,5 5,13 7,17 2,4 2,5 2,5 0,0 0,0 0,11 0,11 0,34 0,45 0,12 -1,12 -1,12 0,0 0,0 -2,-12l-8 -45c-2,-12 -2,-12 -6,-11 -5,1 -15,3 -25,4zm-49 -157c-1,0 -7,-8 -15,-15 -9,-8 -25,-23 -52,-41 -27,-19 -63,-40 -93,-58 -30,-17 -53,-31 -78,-50 -26,-18 -54,-41 -68,-52l-14 -12 -1 -8 -1 -35 0 -8 4 4c3,4 10,12 14,16 4,4 4,4 4,4 0,0 0,-1 -1,-12 -1,-10 -3,-32 -4,-48 -2,-16 -3,-27 -7,-38 -3,-11 -8,-22 -12,-32 -5,-10 -9,-18 -11,-26 -3,-8 -4,-16 -4,-27 1,-11 3,-26 5,-40 -1,9 -1,18 -1,27 1,9 4,18 8,26 4,8 10,14 13,18 2,3 2,3 10,-9 7,-12 21,-36 32,-52 10,-17 17,-24 23,-32 -4,8 -9,17 -16,34 -7,16 -17,40 -23,55 -5,15 -7,20 -7,26 -1,6 -1,13 0,25 0,13 1,31 3,52 3,20 7,42 14,62 7,20 18,38 30,52 12,14 25,24 44,37 18,13 43,27 68,42 -4,-6 -7,-13 -9,-19 -3,-6 -3,-12 -4,-17 6,9 12,18 19,25 6,8 14,14 31,25 18,11 46,27 59,35 14,8 14,8 11,3l-12 -21c-3,-5 -3,-5 -2,-7 1,-2 3,-5 5,-11 1,-7 2,-17 3,-28 1,-12 3,-25 4,-38 1,14 2,29 5,45 4,17 10,35 18,51 8,16 18,29 23,36 5,7 7,9 7,10 0,0 -17,21 -22,26zm-154 13c7,9 15,18 22,24 8,7 15,11 25,13 10,2 22,3 28,4 7,0 7,0 4,-1 -2,-1 -7,-4 -12,-7 -6,-4 -13,-8 -18,-15 -6,-6 -10,-15 -17,-22 -8,-6 -17,-11 -26,-15 -9,-5 -16,-9 -20,-11 -4,-2 -4,-2 -1,3 3,6 9,17 15,27zm51 -13c9,10 19,25 24,32 5,7 5,7 6,8 1,0 2,1 9,4 6,2 15,5 25,9l12 -25c-19,-19 -38,-38 -48,-47 -11,-11 -11,-11 -18,-13 -7,-3 -20,-7 -40,-12 -20,-4 -48,-7 -75,-11 5,18 11,35 18,51 7,19 17,37 26,50 10,13 20,20 28,25 8,5 14,6 28,9 13,1 33,3 53,5l8 -15c-17,-1 -33,-2 -46,-3 -14,-1 -24,-2 -36,-10 -12,-7 -27,-22 -38,-40 -12,-18 -19,-39 -23,-50l-4 -10 11 4c10,4 31,11 46,18 15,6 24,11 34,21z"/>
   <path class="fil5" d="M1097 1140c-10,1 -21,2 -30,1 -10,-1 -18,-4 -24,-10 -7,-5 -12,-13 -15,-17l-2 -4 7 -2 27 -7 7 -2 -3 -1c-4,-2 -10,-5 -14,-6 -4,-2 -4,-2 -5,-2 -1,0 -3,0 -10,2 -6,1 -18,4 -23,5 0,0 -1,0 -1,0 7,12 14,24 19,32 5,9 9,12 14,16 5,4 11,8 15,11 5,2 8,3 9,4 2,0 2,0 7,-1l23 -6c6,-1 6,-1 8,2 1,3 4,9 5,12 1,3 1,3 5,-5l10 -25c-1,-2 -2,-1 -4,-1 -5,1 -15,3 -25,4z"/>
   <g>
    <path class="fil6" d="M1288 1364c-3,-15 -6,-35 -10,-58l-28 41c-8,34 -15,65 -19,82 -5,21 -5,21 -5,21 0,0 0,0 -13,20l-56 85 0 38c0,0 0,0 0,0 6,-1 11,-3 22,-8 5,-2 11,-4 17,-7 23,-36 46,-71 61,-97 18,-30 27,-49 31,-59 4,-10 4,-13 4,-19 0,-6 -1,-16 -4,-39z"/>
    <path class="fil6" d="M1334 1398c-6,15 -12,29 -20,44 -9,19 -20,39 -34,61 -9,15 -20,32 -31,49 16,-11 31,-22 45,-33 16,-14 31,-27 42,-39 10,-12 18,-23 26,-34l-27 -46 -1 -2z"/>
   </g>
   <polygon class="fil6" points="1098,1447 1157,1555 1157,1442 1076,1361 "/>
   <path class="fil5" d="M1530 741c0,0 0,1 0,-3 0,-3 2,-11 2,-20 0,-9 0,-19 -2,-31 -3,-11 -6,-23 -12,-35 -5,-11 -12,-22 -15,-27 -4,-6 -4,-6 1,-1 5,6 15,16 23,27 8,11 13,23 16,29 3,5 3,5 7,-3l10 -29c0,8 -1,17 -2,27 -2,20 -6,42 -14,62 -7,20 -18,38 -30,52 -12,14 -25,24 -43,37 -19,12 -43,27 -68,42 7,-13 13,-25 17,-36 6,-15 9,-27 11,-38 2,-11 2,-22 2,-28l0 -5 -2 -14 -5 -55 -1 -14 -9 -14 -37 -56c-9,-14 -9,-14 2,-1l43 51c10,12 10,12 11,13 0,1 1,2 3,10 1,8 4,22 6,42 3,21 4,47 4,66 0,19 -3,30 -4,35 -1,6 -1,6 7,0 9,-6 26,-17 34,-23 9,-5 9,-5 9,-6 1,0 1,-1 7,-10l24 -35c5,-9 5,-9 5,-9zm-222 148l0 1c0,0 0,0 0,0 0,0 0,0 0,1 1,0 1,0 1,0 0,0 0,1 0,1 0,0 1,0 1,0 0,0 0,0 0,0 1,2 0,2 -2,7l-13 21c-3,5 -3,5 11,-3 14,-8 41,-24 59,-35 17,-11 25,-17 32,-25 7,-7 13,-16 19,-25 -11,11 -22,22 -36,32 -13,10 -29,18 -40,23 -11,4 -16,5 -20,5 -5,0 -8,0 -11,-2l0 0c-1,-8 -2,-17 -1,-28 1,-11 3,-25 4,-37 1,-11 1,-21 -2,-31 -3,-11 -9,-22 -14,-33 -5,-10 -10,-19 -12,-23 -2,-4 -2,-4 0,5 3,8 8,26 11,51 1,7 1,15 2,22 0,0 0,-1 0,-1 2,13 3,26 4,38 1,11 2,21 3,28 1,3 2,5 3,7 0,0 0,0 0,0l0 1 0 0 0 0 0 0 0 0 0 0 1 0 0 0zm94 -5c8,-5 17,-10 24,-15 6,-3 11,-6 17,-9 12,-4 23,-5 32,-5 1,0 3,0 5,0l0 1 14 11c1,1 2,1 3,2 -8,-2 -17,-3 -27,-3 -13,0 -28,3 -45,9 -7,3 -15,6 -23,9z"/>
   <path class="fil5" d="M784 741c0,0 0,1 0,-3 0,-3 -1,-11 -2,-20 0,-9 1,-19 3,-31 2,-11 6,-23 11,-35 5,-11 12,-22 15,-27 4,-6 4,-6 -1,-1 -5,6 -15,16 -22,27 -8,11 -14,23 -17,29 -3,5 -3,5 -6,-3l-11 -29c1,8 1,17 2,27 3,20 7,42 14,62 7,20 18,38 30,52 12,14 25,24 44,37 18,12 42,27 67,42 -7,-13 -13,-25 -17,-36 -6,-15 -9,-27 -11,-38 -1,-11 -1,-22 -1,-28l0 -5 1 -14 5 -55 1 -14 9 -14 37 -56c10,-14 10,-14 -1,-1l-43 51c-11,12 -11,12 -12,13 0,1 -1,2 -2,10 -2,8 -5,22 -7,42 -2,21 -4,47 -4,66 1,19 3,30 4,35 2,6 2,6 -7,0 -8,-6 -26,-17 -34,-23 -9,-5 -9,-5 -9,-6 0,0 -1,-1 -7,-10l-23 -35c-6,-9 -6,-9 -6,-9zm223 148l0 1c-1,0 -1,0 -1,0 0,0 0,0 0,1 0,0 0,0 -1,0 0,0 0,1 0,1 0,0 0,0 0,0 0,0 0,0 0,0 -1,2 -1,2 2,7l12 21c3,5 3,5 -11,-3 -13,-8 -41,-24 -59,-35 -17,-11 -25,-17 -31,-25 -7,-7 -13,-16 -19,-25 11,11 22,22 35,32 14,10 30,18 40,23 11,4 16,5 21,5 4,0 7,0 10,-2l0 0c1,-8 2,-17 1,-28 0,-11 -3,-25 -4,-37 -1,-11 -1,-21 2,-31 3,-11 9,-22 14,-33 5,-10 10,-19 12,-23 3,-4 3,-4 0,5 -2,8 -7,26 -11,51 0,7 -1,15 -2,22 0,0 0,-1 0,-1 -1,13 -3,26 -4,38 -1,11 -2,21 -3,28 -1,3 -2,5 -3,7 0,0 0,0 0,0l0 1 0 0 0 0 0 0 0 0 0 0 0 0 0 0zm-95 -5c-8,-5 -16,-10 -24,-15 -6,-3 -11,-6 -16,-9 -13,-4 -23,-5 -32,-5 -2,0 -4,0 -5,0l-1 1 -14 11c-1,1 -2,1 -2,2 8,-2 16,-3 26,-3 13,0 28,3 45,9 8,3 16,6 23,9z"/>
   <path class="fil6" d="M900 977c-9,-5 -16,-9 -20,-11 -4,-2 -4,-2 -1,3 3,6 9,17 15,27 7,9 15,18 22,24 8,7 15,11 25,13 10,2 22,3 28,4 7,0 7,0 4,-1 -2,-1 -7,-4 -12,-7 -6,-4 -13,-8 -18,-15 -6,-6 -10,-15 -17,-22 -8,-6 -17,-11 -26,-15z"/>
   <path class="fil6" d="M1389 992c-7,7 -12,16 -17,22 -6,7 -13,11 -18,15 -6,3 -11,6 -13,7 -2,1 -2,1 4,1 6,-1 19,-2 28,-4 10,-2 18,-6 25,-13 8,-6 15,-15 22,-24 7,-10 12,-21 15,-27 3,-5 3,-5 -1,-3 -3,2 -11,6 -20,11 -8,4 -18,9 -25,15z"/>
   <path class="fil7" d="M1275 973c-2,2 -2,2 -3,2 -1,-1 -2,-3 -7,-6 -2,-2 -5,-4 -7,-6l0 69c0,17 0,20 0,21 0,2 0,3 -1,4 0,0 0,0 -13,6l-50 23 -13 6 -2 6 -8 27 -2 7 1 9 5 33c0,-10 0,-20 0,-27 0,-11 0,-11 0,-11 0,0 0,-1 2,-5 2,-4 6,-12 8,-17 2,-4 2,-4 2,-4 0,0 0,0 14,-5 14,-6 41,-17 54,-23 14,-5 14,-5 14,-6 0,0 0,0 6,4 5,3 15,9 22,12 6,4 9,5 10,6 1,0 1,0 -5,-1 -5,-1 -16,-4 -23,-5 -7,-2 -8,-2 -9,-2 -2,0 -2,0 -6,2 -3,1 -10,4 -14,6l-3 1 7 2 28 7 6 2 -2 4c-3,4 -8,12 -15,17 -6,6 -14,9 -24,10 -9,1 -20,0 -30,-1 -10,-1 -20,-3 -24,-4 -5,-1 -5,-1 -7,11l-8 44 2 26c0,7 0,7 -5,11l-18 13 2 0c2,0 3,0 7,-2 5,-2 13,-7 17,-9 5,-2 5,-2 4,-1l-4 6c0,1 0,1 2,0 3,-2 8,-5 10,-7 3,-2 3,-3 4,-3 0,-1 0,-1 -2,-5 -1,-3 -4,-10 -6,-14 -1,-4 0,-5 0,-6 0,-1 0,-1 2,2 2,3 6,9 9,14 2,5 3,8 3,11 0,3 -1,5 -2,7 -1,1 -2,3 -4,4 -2,2 -5,4 -13,8 -4,2 -9,4 -15,7l0 23c0,0 1,0 1,0 2,-1 4,-1 5,0 2,0 5,1 12,4 7,3 19,9 25,12 6,2 6,2 5,3 -1,0 -2,0 -3,1 -2,0 -3,0 -6,0 -4,3 -8,6 -12,9 -4,2 -8,4 -12,6l1 0c2,-1 2,-1 1,1 -2,2 -4,6 -8,8l0 1c-4,2 -8,4 -14,5 -3,1 -6,1 -9,1 -3,0 -6,0 -9,-1 -5,-1 -10,-3 -14,-5l0 -1c-3,4 -6,7 -8,11 -4,5 -6,12 -7,15 -1,3 -1,3 2,0 3,-2 8,-8 14,-11 6,-2 13,-3 19,-3 1,1 2,1 3,1 4,0 8,1 11,3 3,3 5,6 6,10 0,4 0,8 -2,11 -2,3 -6,6 -10,7 -1,1 -3,1 -5,2 -3,0 -6,1 -9,1 -5,0 -9,1 -12,1l-2 0 -4 3 -7 7c2,0 5,0 12,0l22 0 22 0c13,0 13,0 17,-4 4,-4 12,-12 27,-28 16,-17 39,-42 51,-57 1,0 1,0 1,0 12,-14 14,-18 17,-32 4,-14 7,-36 11,-59l-36 34 -8 8 -3 14 -9 44 3 -64 65 -66 0 -88 -43 -90c3,-4 7,-7 10,-10l-7 -7zm-21 191c4,0 7,-1 12,-6 6,-5 14,-15 19,-20 5,-5 6,-6 6,-7 1,-1 1,-1 1,-1 0,0 0,0 0,6 0,6 0,18 0,24l0 6 -8 10 -35 38c-9,10 -9,10 -9,10 0,0 0,0 0,9 0,8 0,26 0,35l0 9 -1 -4c-1,-4 -2,-11 -4,-17 -1,-7 -4,-14 -7,-18 -2,-5 -6,-8 -10,-11 -3,-4 -7,-9 -11,-16 -4,-7 -8,-15 -9,-22 -2,-8 -2,-13 -2,-18 1,-6 2,-12 2,-15l0 -3 8 2c8,2 23,6 33,8 9,2 12,2 15,1z"/>
   <path class="fil6" d="M1047 1232l-36 -34c1,6 2,11 3,17 11,11 21,21 27,27 8,7 8,7 8,7 0,1 0,1 5,14 3,7 7,17 12,29l-8 -38 -2 -14 -9 -8z"/>
  </g>
 </g>
</svg>
