<?xml version="1.0" encoding="UTF-8"?>
<!DOCTYPE svg PUBLIC "-//W3C//DTD SVG 1.1//EN" "http://www.w3.org/Graphics/SVG/1.1/DTD/svg11.dtd">
<!-- Creator: CorelDRAW X8 -->
<svg xmlns="http://www.w3.org/2000/svg" xml:space="preserve" width="4.93056in" height="4.93056in" version="1.1" style="shape-rendering:geometricPrecision; text-rendering:geometricPrecision; image-rendering:optimizeQuality; fill-rule:evenodd; clip-rule:evenodd"
viewBox="0 0 2314 2314"
 xmlns:xlink="http://www.w3.org/1999/xlink">
 <defs>
  <style type="text/css">
   <![CDATA[
    .fil0 {fill:none}
    .fil2 {fill:#1D2E4A}
    .fil6 {fill:#7B9CAB}
    .fil5 {fill:#7B9CAB}
    .fil4 {fill:#98AEB9}
    .fil3 {fill:#C7DAE1}
    .fil1 {fill:white}
   ]]>
  </style>
 </defs>
 <g id="Layer_x0020_1">
  <metadata id="CorelCorpID_0Corel-Layer"/>
  <rect class="fil0" width="2314" height="2314"/>
  <g id="_3159780438320">
   <path class="fil1" d="M1158 1743c-25,-11 -50,-22 -76,-36 -25,-14 -52,-32 -77,-51 -25,-20 -48,-42 -68,-67 -19,-25 -34,-54 -45,-80 -11,-25 -17,-47 -23,-76 -6,-29 -12,-64 -16,-107 -3,-44 -3,-94 -3,-120 0,-25 0,-25 0,-25 0,0 0,0 22,-21 22,-21 67,-63 104,-93 37,-29 66,-47 96,-57 29,-10 57,-13 86,-16 29,3 57,6 86,16 29,10 59,28 96,57 37,30 82,72 104,93 22,21 22,21 22,21 0,0 0,0 0,25 0,26 0,76 -4,120 -3,43 -9,78 -15,107 -6,29 -12,51 -23,76 -11,26 -26,55 -45,80 -20,25 -43,47 -68,67 -25,19 -52,37 -77,51 -26,14 -52,25 -76,36z"/>
   <path class="fil2" d="M995 1391c-4,17 -10,43 -14,61 -4,17 -6,27 -7,32 -2,6 -3,8 -3,10 -1,1 -1,2 -7,12l-22 41c-8,-16 -16,-31 -23,-46 -12,-25 -20,-50 -26,-76 -6,-27 -10,-54 -12,-95 -1,-38 -2,-88 -2,-138l14 -13c5,4 11,8 18,10 10,4 22,6 36,8 11,1 23,3 35,5l0 85c3,7 6,14 9,22 4,14 7,31 8,43 1,13 0,22 -4,39zm89 -141c4,-1 11,-4 19,-6 -10,-6 -20,-11 -25,-14 -6,-3 -6,-3 -8,-4 -2,0 -5,0 -7,0 -3,0 -4,0 -8,1 -4,1 -9,3 -12,4 -2,1 -2,1 0,4 3,3 7,8 10,11 3,3 3,3 7,4 4,1 11,2 15,2 3,0 3,0 9,-2zm148 0c-4,-1 -11,-4 -19,-6 10,-6 20,-11 25,-14 6,-3 6,-3 8,-4 2,0 5,0 7,0 3,0 5,0 8,1 4,1 9,3 12,4 2,1 2,1 0,4 -2,3 -7,8 -10,11 -3,3 -3,3 -7,4 -4,1 -11,2 -15,2 -3,0 -3,0 -9,-2zm87 141c4,17 10,43 14,61 4,17 6,27 8,32 1,6 2,8 3,10 0,1 1,2 6,12l22 41c9,-16 17,-31 24,-46 11,-25 19,-50 25,-76 6,-27 10,-54 12,-95 2,-38 2,-88 2,-138l-14 -13c-5,4 -11,8 -18,10 -9,4 -22,6 -35,8 -12,1 -24,3 -36,5l0 85c-3,7 -6,14 -9,22 -4,14 -7,31 -8,43 -1,13 1,22 4,39zm165 -226c0,62 0,122 -2,168 -2,50 -6,84 -17,123 -11,39 -29,83 -52,120 -22,37 -48,66 -78,91 -30,26 -64,48 -99,66 -26,13 -52,24 -79,33 -26,-9 -53,-20 -78,-33 -36,-18 -70,-40 -100,-66 -30,-25 -56,-54 -78,-91 -22,-37 -41,-81 -52,-120 -11,-39 -15,-73 -17,-123 -1,-46 -2,-106 -2,-168l31 -25c-9,-14 -17,-28 -24,-48 -6,-18 -11,-40 -15,-62 23,1 46,2 70,6 21,3 44,9 66,15 -9,-6 -19,-13 -31,-19 -17,-9 -39,-18 -67,-25 -20,-5 -44,-10 -69,-14l27 -25 -106 -84 -16 -129 26 33c0,-7 0,-13 0,-19 -1,-9 -2,-16 -4,-24 -3,-8 -7,-17 -12,-26 -4,-9 -9,-19 -12,-27 -3,-8 -4,-13 -4,-22 -1,-9 -1,-21 2,-33 2,-12 6,-24 15,-39 8,-13 19,-30 31,-46 -1,24 -3,48 -4,64 -1,18 -2,27 -1,33 0,7 1,12 2,14 1,2 3,1 8,-8 5,-10 13,-28 23,-43 9,-15 21,-27 42,-41 13,-9 29,-18 43,-26 -14,24 -28,49 -39,71 -13,25 -21,47 -27,62 -6,15 -9,23 -10,30 -2,8 -2,15 -2,24 0,6 0,12 0,19 15,-13 30,-27 48,-40 15,-11 31,-21 48,-31 -15,24 -29,48 -39,65 -12,20 -19,32 -23,44 -4,11 -7,22 -7,33 -1,11 0,21 1,28 1,7 4,10 8,17 5,6 12,16 20,25 5,6 12,12 18,17 2,-26 4,-52 6,-72 3,-22 5,-38 7,-47 1,-9 2,-11 4,-14 2,-3 6,-6 19,-21 13,-14 35,-39 46,-52 12,-13 12,-14 16,-25 4,-9 10,-25 17,-42 3,8 6,16 8,23 4,14 5,24 3,35 -1,11 -7,22 -18,40 -12,17 -29,42 -38,55 -9,12 -9,12 -10,24l-4 48c-1,12 -1,13 3,23 4,11 12,33 17,44 4,11 5,13 6,14 1,2 3,4 9,8 5,5 15,13 24,20 9,8 18,15 23,18 5,4 6,3 6,-2 0,-5 -1,-13 -4,-24 -2,-10 -5,-24 -5,-36 -1,-13 2,-24 9,-39 7,-15 19,-32 26,-46 8,-15 10,-26 11,-40 1,-11 1,-24 1,-37 9,11 17,21 22,30 7,10 9,18 11,28 1,10 2,23 -1,33 -2,11 -7,21 -10,28 -3,7 -5,13 -6,19 0,6 0,13 3,27 3,14 8,34 13,54 32,-7 64,-11 96,-11 32,0 65,4 96,11 5,-20 11,-40 13,-54 3,-14 3,-21 3,-27 -1,-6 -2,-12 -6,-19 -3,-7 -8,-17 -10,-28 -2,-10 -2,-23 -1,-33 2,-10 4,-18 11,-28 5,-9 13,-19 22,-30 0,13 0,26 1,37 1,14 4,25 11,40 7,14 19,31 26,46 8,15 10,26 9,39 0,12 -3,26 -5,36 -2,11 -3,19 -3,24 0,5 0,6 5,2 5,-3 14,-10 23,-18 9,-7 19,-15 25,-20 5,-4 7,-6 8,-8 1,-1 2,-3 7,-14 4,-11 12,-33 16,-44 4,-10 4,-11 4,-23l-4 -48c-1,-12 -1,-12 -10,-24 -9,-13 -27,-38 -39,-55 -11,-18 -16,-29 -18,-40 -2,-11 0,-21 3,-35 2,-7 5,-15 8,-23 7,17 14,33 17,42 4,11 5,12 16,25 11,13 34,38 47,52 13,15 16,18 18,21 2,3 3,5 5,14 1,9 4,25 6,47 2,20 4,46 6,72 7,-5 13,-11 19,-17 7,-9 14,-19 19,-25 5,-7 7,-10 8,-17 2,-7 2,-17 2,-28 -1,-11 -3,-22 -8,-33 -4,-12 -11,-24 -22,-44 -11,-17 -25,-41 -40,-65 17,10 33,20 48,31 18,13 33,27 48,40 0,-7 1,-13 1,-19 0,-9 -1,-16 -2,-24 -2,-7 -5,-15 -11,-30 -5,-15 -14,-37 -26,-62 -11,-22 -26,-47 -40,-71 14,8 30,17 43,26 21,14 33,26 43,41 9,15 18,33 22,43 5,9 7,10 8,8 1,-2 2,-7 3,-14 0,-6 -1,-15 -2,-33 -1,-16 -2,-40 -4,-64 12,16 23,33 31,46 9,15 13,27 16,39 2,12 2,24 1,33 0,9 -1,14 -4,22 -3,8 -7,18 -12,27 -4,9 -9,18 -11,26 -3,8 -4,15 -5,24 0,6 0,12 0,19l26 -33 -16 129 -106 84 27 25c-25,4 -49,9 -69,14 -28,7 -49,16 -66,25 -13,6 -23,13 -32,19 22,-6 45,-12 67,-15 24,-4 47,-5 70,-6 -5,22 -9,44 -16,62 -6,20 -15,34 -24,48l31 25zm-327 -111c3,-1 6,-1 9,-1 8,0 17,-2 26,-4 7,-1 14,-3 21,-6l9 -14c-11,-2 -22,-4 -33,-5 -11,-1 -21,-1 -32,-2 -10,1 -21,1 -31,2 -11,1 -23,3 -34,5l9 14c7,3 15,5 22,6 9,2 17,4 25,4 3,0 6,0 9,1z"/>
   <path class="fil3" d="M1054 1682c-15,-9 -31,-21 -46,-33 -14,-12 -27,-24 -39,-37 -11,-13 -22,-26 -31,-39 -9,-13 -16,-25 -24,-40 -8,-15 -16,-32 -23,-49 -6,-18 -11,-35 -15,-51 -4,-17 -7,-32 -9,-45 -2,-14 -2,-24 -3,-34 -1,-10 -1,-20 -1,-39 -1,-19 -1,-46 -1,-71l0 -61 19 -16 -4 -6 -8 -10 -27 21c0,47 0,93 0,122 0,30 0,41 1,56 1,14 2,31 5,51 3,19 8,40 14,61 7,21 14,43 24,63 9,20 20,38 31,55 11,16 23,31 37,46 14,15 31,31 48,45 18,14 37,26 57,38 20,11 43,21 61,29 14,6 26,10 37,13 11,-3 23,-7 37,-13 19,-8 41,-18 61,-29 21,-12 39,-24 57,-38 17,-14 34,-30 48,-45 14,-15 26,-30 37,-46 11,-17 22,-35 32,-55 9,-20 17,-42 23,-63 6,-21 11,-42 14,-61 3,-20 4,-37 5,-51 1,-15 1,-26 1,-56 0,-29 0,-75 0,-122l-26 -21 -9 10 -4 6 19 16 0 61c0,25 0,52 0,71 -1,19 -1,29 -2,39 0,10 -1,20 -3,34 -2,13 -5,28 -9,45 -4,16 -9,33 -15,51 -7,17 -15,34 -23,49 -7,15 -15,27 -24,40 -9,13 -19,26 -31,39 -12,13 -24,25 -39,37 -15,12 -31,24 -46,33 -15,9 -28,16 -43,23 -15,7 -32,15 -47,21 -4,1 -9,3 -13,4 -4,-1 -8,-3 -13,-4 -15,-6 -32,-14 -47,-21 -15,-7 -28,-14 -43,-23zm103 -252l-15 0c-4,0 -4,0 -7,-1l-8 -1c-2,0 -2,0 0,2 1,1 4,5 7,8 4,3 9,5 14,6 3,0 6,0 9,0 3,0 6,0 9,0 6,-1 10,-3 14,-6 3,-3 6,-7 8,-8 1,-2 1,-2 -1,-2l-8 1c-2,1 -2,1 -6,1l-16 0zm93 35l52 -78 22 98 3 17c-16,34 -32,67 -49,95 -17,31 -34,55 -44,69 -9,13 -11,15 -11,16 -1,2 -2,2 -10,5 -8,4 -24,11 -34,16 -11,4 -16,6 -22,8 0,0 0,0 0,0 0,0 0,0 0,0 -5,-2 -11,-4 -21,-8 -11,-5 -27,-12 -35,-16 -8,-3 -8,-3 -9,-5 -1,-1 -3,-3 -12,-16 -9,-14 -27,-38 -44,-69 -16,-28 -33,-61 -49,-95l4 -17 21 -98 52 78c8,33 15,64 19,81 5,21 5,21 5,21 0,1 0,1 13,20l56 85 56 -85c13,-19 13,-19 13,-20 0,0 0,0 5,-21 4,-17 11,-48 19,-81zm30 155c14,-22 25,-42 34,-60 8,-16 14,-30 20,-44l1 1 27 47c-8,11 -16,22 -26,33 -11,13 -26,26 -42,39 -14,11 -29,22 -45,33 11,-17 22,-33 31,-49zm-6 -213c-12,14 -35,39 -51,56 -15,17 -23,25 -27,29 -4,4 -4,4 -17,4l-22 0 -22 0c-13,0 -13,0 -17,-4 -4,-4 -12,-12 -27,-29 -15,-17 -38,-42 -51,-56 -13,-15 -15,-19 -18,-33 -3,-13 -7,-36 -11,-59l36 35 9 8 2 13 9 44 -3 -63 -64 -67 0 -87 42 -91c-17,-18 -36,-35 -59,-52 -27,-19 -61,-37 -90,-48 -28,-11 -52,-16 -64,-18 -12,-2 -12,-2 -12,-2 0,0 0,0 3,-3l14 -11 3 -3 -10 -7c-10,-8 -30,-24 -49,-39 -19,-15 -37,-29 -47,-36 -9,-8 -9,-8 -9,-8 0,-1 0,-1 -2,-16 -2,-15 -6,-45 -8,-60l-3 -15 5 5 18 20c4,5 4,5 4,1 0,-4 -1,-12 -2,-25 -2,-13 -4,-32 -8,-48 -5,-15 -12,-28 -17,-38 -4,-10 -7,-17 -8,-25 -2,-8 -3,-18 -2,-29 2,-10 5,-22 9,-32 5,-11 12,-22 15,-27 3,-5 3,-5 3,-1 -1,3 -2,10 -2,23 -1,13 -1,32 1,45 3,12 7,18 10,21 2,3 2,3 4,0 2,-3 6,-9 12,-19 6,-11 13,-25 20,-37 7,-11 14,-19 23,-27 8,-8 20,-16 25,-19 6,-4 6,-4 1,5 -5,10 -16,29 -25,48 -9,18 -17,37 -23,53 -5,17 -8,33 -9,48 0,16 2,32 3,39 1,8 1,8 1,8l1 -1c0,0 0,0 4,-5 4,-5 13,-16 25,-27 12,-12 29,-26 37,-32 8,-7 8,-7 5,-2 -3,5 -9,14 -17,27 -7,12 -15,29 -20,39 -5,11 -7,16 -8,21 -2,5 -3,11 -3,21 -1,9 0,24 0,31 0,7 0,7 6,15 6,8 18,25 24,34 6,8 7,8 7,8 0,0 0,0 5,3 5,3 14,10 19,13l5 3 0 -2c0,-2 0,-7 1,-15 0,-7 0,-19 1,-34 1,-15 3,-33 5,-49 2,-16 4,-28 6,-34 1,-7 1,-7 1,-7 0,-1 0,-1 13,-16 13,-14 38,-43 51,-58 13,-14 13,-14 15,-19l8 -20c2,-5 2,-5 3,-3 1,2 2,6 2,12 1,6 0,13 -4,23 -4,9 -11,21 -22,38 -11,16 -26,38 -33,48 -7,11 -7,11 -8,24l-3 51 -1 13 5 12 19 49c5,12 5,12 5,12 1,1 2,2 11,9 9,8 27,22 38,30 12,9 17,12 21,13 5,0 8,-1 9,-3 2,-2 2,-4 1,-12 -1,-8 -3,-21 -4,-35 -2,-14 -4,-29 -2,-43 2,-14 8,-27 15,-38 6,-12 13,-22 18,-30 4,-8 6,-15 8,-24 1,-8 2,-17 2,-26 5,6 9,12 12,19 3,7 3,15 3,24 -1,9 -3,20 -7,31 -4,11 -10,22 -11,32 -2,10 1,20 5,36 3,16 9,39 14,63 22,-5 43,-9 62,-11 15,-1 29,-2 41,-1 13,-1 26,0 42,1 18,2 39,6 61,11 6,-24 11,-47 15,-63 4,-16 6,-26 4,-36 -1,-10 -7,-21 -10,-32 -4,-11 -7,-22 -7,-31 -1,-9 0,-17 3,-24 2,-7 6,-13 11,-19 1,9 1,18 3,26 1,9 3,16 8,24 4,8 11,18 17,30 7,11 13,24 15,38 3,14 1,29 -1,43 -2,14 -4,27 -5,35 -1,8 0,10 1,12 2,2 5,3 9,3 4,-1 10,-4 21,-13 12,-8 29,-22 38,-30 9,-7 10,-8 11,-9 0,0 0,0 5,-12l19 -49 5 -12 -1 -13 -3 -51c-1,-13 -1,-13 -8,-24 -7,-10 -22,-32 -33,-48 -11,-17 -18,-29 -22,-38 -4,-10 -4,-17 -4,-23 0,-6 2,-10 2,-12 1,-2 1,-2 3,3l8 20c2,5 2,5 15,19 13,15 39,44 52,58 12,15 12,15 12,16 0,0 1,0 2,7 1,6 3,18 5,34 2,16 4,34 5,49 1,15 1,27 2,34 0,8 0,13 1,15l0 2 4 -3c5,-3 14,-10 19,-13 5,-3 5,-3 5,-3 1,0 1,0 7,-8 6,-9 18,-26 24,-34 7,-8 7,-8 7,-15 0,-7 0,-22 -1,-31 0,-10 -1,-16 -3,-21 -1,-5 -3,-10 -8,-21 -5,-10 -13,-27 -20,-39 -7,-13 -14,-22 -17,-27 -3,-5 -3,-5 5,2 8,6 25,20 37,32 13,11 21,22 25,27 4,5 4,5 4,5l1 1c0,0 0,0 1,-8 1,-7 3,-23 3,-39 -1,-15 -3,-31 -9,-48 -6,-16 -14,-35 -23,-53 -9,-19 -20,-38 -25,-48 -5,-9 -5,-9 1,-5 5,3 17,11 26,19 9,8 15,16 22,27 7,12 15,26 20,37 6,10 10,16 12,19 2,3 2,3 5,0 2,-3 7,-9 9,-21 2,-13 2,-32 2,-45 -1,-13 -2,-20 -2,-23 -1,-4 -1,-4 2,1 4,5 10,16 15,27 5,10 8,22 9,32 1,11 0,21 -1,29 -2,8 -4,15 -9,25 -5,10 -12,23 -17,38 -4,16 -6,35 -7,48 -2,13 -2,21 -3,25 0,4 0,4 4,-1l18 -20 5 -5 -2 15c-2,15 -7,45 -9,60 -2,15 -2,15 -2,16 0,0 0,0 -9,8 -9,7 -28,21 -47,36 -19,15 -39,31 -49,39l-10 7 3 3 14 11c3,3 4,3 4,3 0,0 0,0 -12,2 -12,2 -36,7 -65,18 -29,11 -63,29 -90,48 -23,17 -41,34 -59,52l43 91 0 87 -65 67 -3 63 9 -44 3 -13 8 -8 36 -35c-4,23 -7,46 -11,59 -3,14 -5,18 -18,33zm-117 5c2,0 3,0 5,0 3,0 5,-1 8,-2 3,-1 7,-1 12,-1 4,0 9,1 14,2 5,1 10,2 13,2 4,0 5,0 7,0 1,0 2,-1 3,-1 1,0 1,0 -5,-3 -6,-3 -18,-8 -25,-12 -7,-3 -10,-3 -12,-4 -1,0 -3,0 -5,0 -2,1 -5,2 -7,3 -3,1 -5,2 -7,2 -1,0 -1,0 -1,0 0,0 0,0 0,0 -2,0 -5,-1 -7,-2 -3,-1 -5,-2 -7,-3 -3,0 -4,0 -6,0 -2,1 -4,1 -12,4 -7,4 -19,9 -25,12 -5,3 -5,3 -5,3 1,0 2,1 4,1 1,0 2,0 6,0 3,0 8,-1 13,-2 5,-1 10,-2 14,-2 5,0 9,0 12,1 4,1 6,2 8,2 2,0 3,0 5,0zm0 -34c11,-6 22,-11 29,-15 8,-4 11,-6 13,-7 2,-2 3,-3 4,-5 1,-2 2,-4 2,-7 0,-3 -1,-6 -3,-11 -3,-4 -7,-10 -9,-13 -2,-3 -2,-3 -2,-3 0,1 -1,3 0,7 2,4 5,10 6,14 2,3 2,4 2,4 -1,1 -1,1 -4,3 -2,2 -7,5 -10,7 -2,2 -2,2 -2,0l4 -5c1,-2 1,-2 -4,0 -4,3 -12,7 -17,9 -4,3 -5,3 -7,3l-2 0 -1 0c-3,0 -3,0 -8,-3 -4,-2 -13,-6 -17,-9 -5,-2 -5,-2 -4,0l4 5c1,2 1,2 -2,0 -2,-2 -7,-5 -10,-7 -3,-2 -3,-2 -3,-3 -1,0 -1,-1 1,-4 1,-4 4,-10 6,-14 1,-4 1,-6 1,-7 -1,0 -1,0 -3,3 -2,3 -6,9 -9,13 -2,5 -3,8 -3,11 0,3 1,5 2,7 1,2 2,3 4,5 2,1 5,3 13,7 7,4 18,9 29,15zm0 -309c19,-3 35,-6 45,-7 16,-3 16,-3 16,-3 0,-1 1,-1 2,-2 1,-1 4,-3 9,-11 5,-7 12,-18 20,-30 -16,-3 -30,-6 -44,-8 -17,-3 -33,-3 -48,-4 -15,1 -31,1 -48,4 -13,2 -28,5 -43,8 7,12 14,23 19,30 6,8 8,10 9,11 1,1 2,1 2,2 0,0 1,0 16,3 10,1 27,4 45,7zm60 188c10,2 21,3 30,2 10,-2 18,-5 24,-10 7,-6 12,-14 15,-18l2 -4 -6 -2 -28 -7 -7 -1 3 -2c4,-1 11,-4 14,-6 4,-1 4,-1 6,-1 1,0 2,0 9,1 7,1 18,4 23,5 6,1 6,1 5,1 -1,-1 -4,-2 -10,-5 -7,-4 -17,-10 -22,-13 -6,-3 -6,-3 -6,-3 0,0 0,0 -14,6 -13,5 -40,16 -54,22 -14,5 -14,5 -14,5 0,0 0,0 -2,5 -2,4 -6,12 -8,17 -2,4 -2,4 -2,4 0,0 0,0 0,11 0,12 0,34 0,46 0,11 1,11 1,11 0,0 0,0 2,-11l8 -46c2,-11 2,-11 7,-11 4,1 14,3 24,4zm33 -182c4,2 11,8 15,11 5,4 6,5 7,6 1,1 1,1 9,-7 9,-8 26,-23 52,-41 27,-18 64,-40 93,-57 30,-18 53,-32 79,-50 25,-19 53,-42 68,-53l14 -12 0 -8 1 -34 0 -9 -3 4c-4,4 -11,12 -15,16 -3,4 -3,4 -3,4 0,0 0,0 0,-11 1,-11 3,-32 4,-48 2,-16 4,-27 7,-38 3,-11 8,-23 13,-33 4,-9 8,-18 10,-26 3,-8 5,-15 4,-27 0,-11 -3,-25 -5,-40 1,9 2,18 1,27 -1,9 -3,18 -7,26 -5,8 -10,15 -13,18 -3,3 -3,3 -10,-9 -8,-12 -22,-36 -32,-52 -11,-16 -17,-24 -24,-32 4,9 9,18 16,34 7,16 17,41 23,55 6,15 7,20 8,26 0,6 0,13 0,26 -1,12 -2,31 -4,51 -2,20 -6,42 -14,62 -7,20 -18,38 -30,52 -12,14 -25,25 -43,37 -19,13 -44,28 -68,43 3,-7 7,-14 9,-20 2,-6 3,-11 4,-17 -6,9 -12,18 -19,26 -7,7 -15,13 -32,24 -18,11 -45,28 -59,36 -14,8 -14,8 -11,3l13 -22c3,-5 3,-5 1,-7 -1,-1 -3,-4 -5,-11 -1,-6 -2,-16 -3,-28 -1,-11 -2,-25 -4,-38 -1,15 -2,29 -5,46 -4,16 -10,34 -18,50 -8,16 -18,30 -23,37 -5,6 -5,6 -5,6 1,1 1,1 4,4zm170 38c-7,10 -14,18 -22,25 -7,6 -15,10 -25,12 -9,3 -22,4 -28,4 -6,0 -6,0 -4,-1 2,-1 7,-3 13,-7 5,-3 12,-8 18,-14 5,-7 10,-16 17,-22 7,-7 17,-12 25,-16 9,-4 17,-9 20,-11 4,-2 4,-2 1,3 -3,6 -8,17 -15,27zm-51 -13c-9,10 -19,25 -24,32 -5,8 -5,8 -6,8 0,1 -2,1 -9,4 -5,2 -15,6 -25,9l-12 -25c20,-19 38,-37 48,-47 11,-10 12,-10 18,-13 7,-2 20,-7 41,-11 20,-4 47,-8 75,-11 -6,17 -12,34 -18,51 -8,18 -17,36 -27,49 -10,13 -20,21 -28,25 -8,5 -14,7 -28,9 -13,2 -32,4 -52,6l-8 -16c16,-1 32,-2 45,-3 14,-1 24,-2 36,-9 12,-8 27,-23 39,-41 11,-17 19,-39 22,-49l4 -11 -10 4c-11,4 -32,12 -47,18 -15,6 -24,11 -34,21zm-335 520c-13,-22 -25,-42 -34,-60 -8,-16 -14,-30 -20,-44l0 1 -28 47c8,11 16,22 26,33 12,13 26,26 43,39 13,11 29,22 44,33 -11,-17 -21,-33 -31,-49zm63 -363c-10,2 -21,3 -30,2 -10,-2 -18,-5 -24,-10 -7,-6 -12,-14 -15,-18l-2 -4 7 -2 27 -7 7 -1 -3 -2c-4,-1 -10,-4 -14,-6 -4,-1 -4,-1 -5,-1 -1,0 -3,0 -10,1 -6,1 -18,4 -23,5 -6,1 -6,1 -5,1 1,-1 4,-2 10,-5 7,-4 17,-10 23,-13 5,-3 5,-3 5,-3 0,0 0,0 14,6 14,5 41,16 54,22 14,5 14,5 14,5 0,0 1,0 3,5 2,4 5,12 7,17 2,4 2,4 2,4 0,0 0,0 0,11 0,12 0,34 0,46 0,11 -1,11 -1,11 0,0 0,0 -2,-11l-8 -46c-2,-11 -2,-11 -6,-11 -5,1 -15,3 -25,4zm-49 -157c-1,1 -7,-7 -15,-15 -9,-8 -25,-23 -52,-41 -27,-18 -63,-40 -93,-57 -30,-18 -53,-32 -78,-50 -26,-19 -54,-42 -68,-53l-14 -12 -1 -8 -1 -34 0 -9 4 4c3,4 10,12 14,16 4,4 4,4 4,4 0,0 0,0 -1,-11 -1,-11 -3,-32 -4,-48 -2,-16 -3,-27 -7,-38 -3,-11 -8,-23 -12,-33 -5,-9 -9,-18 -11,-26 -3,-8 -4,-15 -4,-27 1,-11 3,-25 5,-40 -1,9 -1,18 -1,27 1,9 4,18 8,26 4,8 10,15 13,18 2,3 2,3 10,-9 7,-12 21,-36 32,-52 10,-16 17,-24 23,-32 -4,9 -9,18 -16,34 -7,16 -17,41 -23,55 -5,15 -7,20 -7,26 -1,6 -1,13 0,26 0,12 1,31 3,51 3,20 7,42 14,62 7,20 18,38 30,52 12,14 25,25 44,37 18,13 43,28 68,43 -4,-7 -7,-14 -9,-20 -3,-6 -3,-11 -4,-17 6,9 12,18 19,26 6,7 14,13 31,24 18,11 46,28 59,36 14,8 14,8 11,3l-12 -22c-3,-5 -3,-5 -2,-7 1,-1 3,-4 5,-11 1,-6 2,-16 3,-28 1,-11 3,-25 4,-38 1,15 2,29 5,46 4,16 10,34 18,50 8,16 18,30 23,37 5,6 7,9 7,9 0,0 -17,21 -22,26zm-154 13c7,10 15,18 22,25 8,6 15,10 25,12 10,3 22,4 28,4 7,0 7,0 4,-1 -2,-1 -7,-3 -12,-7 -6,-3 -13,-8 -18,-14 -6,-7 -10,-16 -17,-22 -8,-7 -17,-12 -26,-16 -9,-4 -16,-9 -20,-11 -4,-2 -4,-2 -1,3 3,6 9,17 15,27zm51 -13c9,10 19,25 24,32 5,8 5,8 6,8 1,1 2,1 9,4 6,2 15,6 25,9l12 -25c-19,-19 -38,-37 -48,-47 -11,-10 -11,-10 -18,-13 -7,-2 -20,-7 -40,-11 -20,-4 -48,-8 -75,-11 5,17 11,34 18,51 7,18 17,36 26,49 10,13 20,21 28,25 8,5 14,7 28,9 13,2 33,4 53,6l8 -16c-17,-1 -33,-2 -46,-3 -14,-1 -24,-2 -36,-9 -12,-8 -27,-23 -38,-41 -12,-17 -19,-39 -23,-49l-4 -11 11 4c10,4 31,12 46,18 15,6 24,11 34,21z"/>
   <path class="fil4" d="M1097 1257c-10,2 -21,3 -30,2 -10,-2 -18,-5 -24,-10 -7,-6 -12,-14 -15,-18l-2 -4 7 -2 27 -7 7 -1 -3 -2c-4,-1 -10,-4 -14,-6 -4,-1 -4,-1 -5,-1 -1,0 -3,0 -10,1 -6,1 -18,4 -23,5 0,0 -1,0 -1,0 7,13 14,24 19,32 5,9 9,13 14,16 5,4 11,8 15,11 5,2 8,3 9,4 2,1 2,1 7,-1l23 -5c6,-2 6,-2 8,1 1,3 4,9 5,12 1,3 1,3 5,-5l10 -25c-1,-1 -2,-1 -4,-1 -5,1 -15,3 -25,4z"/>
   <g>
    <path class="fil5" d="M1288 1481c-3,-15 -6,-35 -10,-58l-28 42c-8,33 -15,64 -19,81 -5,21 -5,21 -5,21 0,1 0,1 -13,20l-56 85 0 39c0,0 0,0 0,0 6,-2 11,-4 22,-8 5,-2 11,-5 17,-8 23,-36 46,-71 61,-97 18,-30 27,-48 31,-59 4,-10 4,-13 4,-19 0,-6 -1,-15 -4,-39z"/>
    <path class="fil5" d="M1334 1516c-6,14 -12,28 -20,44 -9,18 -20,38 -34,60 -9,16 -20,32 -31,49 16,-11 31,-22 45,-33 16,-13 31,-26 42,-39 10,-11 18,-22 26,-33l-27 -47 -1 -1z"/>
   </g>
   <polygon class="fil5" points="1098,1564 1157,1672 1157,1560 1076,1478 "/>
   <path class="fil4" d="M1530 858c0,1 0,1 0,-2 0,-4 2,-11 2,-20 0,-9 0,-20 -2,-32 -3,-11 -6,-23 -12,-35 -5,-11 -12,-22 -15,-27 -4,-5 -4,-5 1,0 5,5 15,15 23,26 8,11 13,23 16,29 3,6 3,6 7,-3l10 -29c0,8 -1,17 -2,27 -2,20 -6,42 -14,62 -7,20 -18,38 -30,52 -12,14 -25,25 -43,37 -19,13 -43,27 -68,42 7,-13 13,-25 17,-36 6,-15 9,-26 11,-38 2,-11 2,-22 2,-27l0 -6 -2 -14 -5 -55 -1 -14 -9 -14 -37 -55c-9,-14 -9,-14 2,-2l43 51c10,13 10,13 11,13 0,1 1,2 3,10 1,8 4,22 6,43 3,20 4,47 4,66 0,18 -3,29 -4,35 -1,5 -1,5 7,-1 9,-5 26,-17 34,-22 9,-6 9,-6 9,-6 1,-1 1,-1 7,-10l24 -36c5,-9 5,-9 5,-9zm-222 148l0 1c0,0 0,0 0,0 0,1 0,1 0,1 1,0 1,0 1,1 0,0 0,0 0,0 0,0 1,1 1,1 0,0 0,0 0,0 1,1 0,1 -2,6l-13 22c-3,5 -3,5 11,-3 14,-8 41,-25 59,-36 17,-11 25,-17 32,-24 7,-8 13,-17 19,-26 -11,11 -22,22 -36,32 -13,10 -29,19 -40,23 -11,5 -16,5 -20,5 -5,0 -8,0 -11,-2l0 0c-1,-8 -2,-17 -1,-27 1,-12 3,-26 4,-37 1,-12 1,-21 -2,-32 -3,-10 -9,-22 -14,-32 -5,-10 -10,-19 -12,-24 -2,-4 -2,-4 0,5 3,9 8,27 11,52 1,7 1,14 2,22 0,-1 0,-1 0,-2 2,13 3,27 4,38 1,12 2,22 3,28 1,3 2,6 3,8 0,0 0,0 0,0l0 0 0 0 0 0 0 0 0 0 0 0 1 0 0 0zm94 -5c8,-5 17,-10 24,-14 6,-4 11,-7 17,-10 12,-3 23,-5 32,-5 1,0 3,0 5,0l0 1 14 11c1,1 2,2 3,2 -8,-2 -17,-3 -27,-3 -13,1 -28,4 -45,10 -7,2 -15,5 -23,8z"/>
   <path class="fil4" d="M784 858c0,1 0,1 0,-2 0,-4 -1,-11 -2,-20 0,-9 1,-20 3,-32 2,-11 6,-23 11,-35 5,-11 12,-22 15,-27 4,-5 4,-5 -1,0 -5,5 -15,15 -22,26 -8,11 -14,23 -17,29 -3,6 -3,6 -6,-3l-11 -29c1,8 1,17 2,27 3,20 7,42 14,62 7,20 18,38 30,52 12,14 25,25 44,37 18,13 42,27 67,42 -7,-13 -13,-25 -17,-36 -6,-15 -9,-26 -11,-38 -1,-11 -1,-22 -1,-27l0 -6 1 -14 5 -55 1 -14 9 -14 37 -55c10,-14 10,-14 -1,-2l-43 51c-11,13 -11,13 -12,13 0,1 -1,2 -2,10 -2,8 -5,22 -7,43 -2,20 -4,47 -4,66 1,18 3,29 4,35 2,5 2,5 -7,-1 -8,-5 -26,-17 -34,-22 -9,-6 -9,-6 -9,-6 0,-1 -1,-1 -7,-10l-23 -36c-6,-9 -6,-9 -6,-9zm223 148l0 1c-1,0 -1,0 -1,0 0,1 0,1 0,1 0,0 0,0 -1,1 0,0 0,0 0,0 0,0 0,1 0,1 0,0 0,0 0,0 -1,1 -1,1 2,6l12 22c3,5 3,5 -11,-3 -13,-8 -41,-25 -59,-36 -17,-11 -25,-17 -31,-24 -7,-8 -13,-17 -19,-26 11,11 22,22 35,32 14,10 30,19 40,23 11,5 16,5 21,5 4,0 7,0 10,-2l0 0c1,-8 2,-17 1,-27 0,-12 -3,-26 -4,-37 -1,-12 -1,-21 2,-32 3,-10 9,-22 14,-32 5,-10 10,-19 12,-24 3,-4 3,-4 0,5 -2,9 -7,27 -11,52 0,7 -1,14 -2,22 0,-1 0,-1 0,-2 -1,13 -3,27 -4,38 -1,12 -2,22 -3,28 -1,3 -2,6 -3,8 0,0 0,0 0,0l0 0 0 0 0 0 0 0 0 0 0 0 0 0 0 0zm-95 -5c-8,-5 -16,-10 -24,-14 -6,-4 -11,-7 -16,-10 -13,-3 -23,-5 -32,-5 -2,0 -4,0 -5,0l-1 1 -14 11c-1,1 -2,2 -2,2 8,-2 16,-3 26,-3 13,1 28,4 45,10 8,2 16,5 23,8z"/>
   <path class="fil5" d="M900 1094c-9,-4 -16,-9 -20,-11 -4,-2 -4,-2 -1,3 3,6 9,17 15,27 7,10 15,18 22,25 8,6 15,10 25,12 10,3 22,4 28,4 7,0 7,0 4,-1 -2,-1 -7,-3 -12,-7 -6,-3 -13,-8 -18,-14 -6,-7 -10,-16 -17,-22 -8,-7 -17,-12 -26,-16z"/>
   <path class="fil5" d="M1389 1110c-7,6 -12,15 -17,22 -6,6 -13,11 -18,14 -6,4 -11,6 -13,7 -2,1 -2,1 4,1 6,0 19,-1 28,-4 10,-2 18,-6 25,-12 8,-7 15,-15 22,-25 7,-10 12,-21 15,-27 3,-5 3,-5 -1,-3 -3,2 -11,7 -20,11 -8,4 -18,9 -25,16z"/>
   <path class="fil6" d="M1275 1091c-2,2 -2,1 -3,1 -1,-1 -2,-2 -7,-6 -2,-1 -5,-4 -7,-6l0 70c0,17 0,19 0,21 0,1 0,2 -1,3 0,0 0,0 -13,6l-50 23 -13 6 -2 7 -8 27 -2 6 1 9 5 33c0,-10 0,-20 0,-27 0,-11 0,-11 0,-11 0,0 0,0 2,-4 2,-5 6,-13 8,-17 2,-5 2,-5 2,-5 0,0 0,0 14,-5 14,-6 41,-17 54,-22 14,-6 14,-6 14,-6 0,0 0,0 6,3 5,3 15,9 22,13 6,3 9,4 10,5 1,0 1,0 -5,-1 -5,-1 -16,-4 -23,-5 -7,-1 -8,-1 -9,-1 -2,0 -2,0 -6,1 -3,2 -10,5 -14,6l-3 2 7 1 28 7 6 2 -2 4c-3,4 -8,12 -15,18 -6,5 -14,8 -24,10 -9,1 -20,0 -30,-2 -10,-1 -20,-3 -24,-4 -5,0 -5,0 -7,11l-8 45 2 25c0,7 0,7 -5,11l-18 14 2 0c2,0 3,0 7,-3 5,-2 13,-6 17,-9 5,-2 5,-2 4,0l-4 5c0,2 0,2 2,0 3,-2 8,-5 10,-7 3,-2 3,-2 4,-3 0,0 0,-1 -2,-4 -1,-4 -4,-10 -6,-14 -1,-4 0,-6 0,-7 0,0 0,0 2,3 2,3 6,9 9,13 2,5 3,8 3,11 0,3 -1,5 -2,7 -1,2 -2,3 -4,5 -2,1 -5,3 -13,7 -4,2 -9,5 -15,8l0 22c0,0 1,0 1,0 2,0 4,0 5,0 2,1 5,1 12,4 7,4 19,9 25,12 6,3 6,3 5,3 -1,0 -2,1 -3,1 -2,0 -3,0 -6,0 -4,3 -8,7 -12,10 -4,2 -8,3 -12,5l1 0c2,0 2,0 1,2 -2,1 -4,5 -8,8l0 0c-4,3 -8,5 -14,6 -3,0 -6,0 -9,0 -3,0 -6,0 -9,0 -5,-1 -10,-3 -14,-6l0 0c-3,3 -6,6 -8,10 -4,5 -6,12 -7,15 -1,3 -1,3 2,1 3,-3 8,-8 14,-11 6,-3 13,-4 19,-3 1,0 2,0 3,0 4,1 8,2 11,4 3,2 5,5 6,9 0,4 0,8 -2,11 -2,4 -6,6 -10,8 -1,0 -3,1 -5,1 -3,1 -6,1 -9,1 -5,1 -9,1 -12,1l-2 0 -4 3 -7 7c2,1 5,1 12,1l22 0 22 0c13,0 13,0 17,-4 4,-4 12,-12 27,-29 16,-17 39,-42 51,-56 1,0 1,-1 1,-1 12,-14 14,-18 17,-32 4,-13 7,-36 11,-59l-36 35 -8 8 -3 13 -9 44 3 -63 65 -67 0 -87 -43 -91c3,-3 7,-7 10,-10l-7 -6zm-21 191c4,-1 7,-2 12,-7 6,-5 14,-14 19,-20 5,-5 6,-6 6,-7 1,0 1,0 1,0 0,0 0,0 0,6 0,6 0,18 0,24l0 6 -8 9 -35 39c-9,9 -9,9 -9,9 0,0 0,0 0,9 0,9 0,26 0,35l0 9 -1 -4c-1,-3 -2,-10 -4,-17 -1,-7 -4,-13 -7,-18 -2,-4 -6,-7 -10,-11 -3,-4 -7,-9 -11,-15 -4,-7 -8,-16 -9,-23 -2,-7 -2,-12 -2,-18 1,-6 2,-12 2,-15l0 -3 8 2c8,2 23,6 33,8 9,2 12,2 15,2z"/>
   <path class="fil5" d="M1047 1350l-36 -35c1,6 2,12 3,17 11,11 21,21 27,27 8,8 8,8 8,8 0,0 0,0 5,13 3,7 7,18 12,30l-8 -39 -2 -13 -9 -8z"/>
  </g>
 </g>
</svg>
